<svg width="158" height="158" viewBox="0 0 158 158" fill="none" xmlns="http://www.w3.org/2000/svg">
<g filter="url(#filter0_d_460_1766)">
<g filter="url(#filter1_d_460_1766)">
<rect x="4" width="150" height="150" rx="10" fill="#F2F2F2"/>
<rect x="4.5" y="0.5" width="149" height="149" rx="9.5" stroke="#902C8C"/>
</g>
<g clip-path="url(#clip0_460_1766)">
<path d="M136.088 25.0007H98.8658C97.0695 25.0006 95.3268 25.6109 93.9239 26.7314C92.521 27.8518 91.5415 29.4157 91.1465 31.1659L72.3392 114.491C72.1341 115.4 72.1304 116.343 72.3286 117.253C72.5268 118.164 72.9219 119.02 73.4864 119.762C74.0508 120.503 74.7708 121.113 75.596 121.547C76.4212 121.982 77.3315 122.23 78.2631 122.276L116.528 124.159C118.577 124.26 120.592 123.613 122.199 122.338C123.805 121.064 124.892 119.249 125.257 117.233L135.927 58.3208L136.72 58.5474L138.762 47.3813L137.945 47.1773L140.923 30.7328C141.051 30.0284 141.022 29.3046 140.837 28.6129C140.652 27.9212 140.317 27.2788 139.856 26.7313C139.394 26.1838 138.817 25.7448 138.166 25.4456C137.515 25.1464 136.806 24.9943 136.089 25.0002L136.088 25.0007Z" fill="#3F3D56"/>
<path d="M103.765 26.7969H99.421C98.1732 26.7969 96.9629 27.2232 95.9911 28.0049C95.0193 28.7866 94.3444 29.8768 94.0784 31.0945L76.0254 113.74C75.9214 114.216 75.9215 114.709 76.0256 115.184C76.1298 115.66 76.3355 116.108 76.6288 116.497C76.9221 116.886 77.296 117.208 77.725 117.439C78.154 117.671 78.628 117.807 79.1145 117.839L117.255 120.336C118.331 120.406 119.395 120.078 120.245 119.415C121.094 118.751 121.669 117.799 121.861 116.739L137.265 31.3165C137.365 30.7636 137.342 30.1956 137.198 29.6526C137.054 29.1096 136.792 28.6047 136.431 28.1737C136.071 27.7427 135.62 27.396 135.11 27.1581C134.601 26.9203 134.045 26.7969 133.483 26.7969H129.361C128.962 26.7969 128.574 26.9283 128.258 27.1706C127.941 27.413 127.713 27.7529 127.609 28.1377C127.518 28.4775 127.317 28.7776 127.037 28.9916C126.757 29.2056 126.415 29.3216 126.062 29.3214H106.495C105.806 29.3214 105.141 29.0614 104.635 28.5934C104.129 28.1254 103.818 27.4838 103.765 26.7969Z" fill="white"/>
<path d="M124.849 84.5733C124.924 84.5758 124.996 84.5516 125.054 84.5052C125.112 84.4587 125.151 84.3931 125.164 84.3202L133.599 37.8236C133.607 37.7795 133.605 37.734 133.594 37.6905C133.583 37.647 133.563 37.6064 133.534 37.5715C133.506 37.5368 133.471 37.5088 133.431 37.4893C133.391 37.4698 133.347 37.4594 133.302 37.4588L94.9288 37.0061H94.9252C94.8555 37.0067 94.7881 37.0309 94.734 37.0747C94.6799 37.1186 94.6423 37.1795 94.6274 37.2475L84.6842 82.2348C84.6745 82.2787 84.6744 82.3242 84.6839 82.3681C84.6934 82.4121 84.7123 82.4535 84.7393 82.4894C84.766 82.5251 84.8003 82.5545 84.8397 82.5755C84.8791 82.5964 84.9226 82.6085 84.9672 82.6107L124.849 84.5733Z" fill="#E6E6E6"/>
<path d="M91.549 87.5795C91.5141 87.5796 91.4802 87.5914 91.4529 87.6131C91.4256 87.6347 91.4064 87.665 91.3985 87.699L91.0391 89.2373C91.034 89.2591 91.0337 89.2817 91.0382 89.3035C91.0427 89.3254 91.0518 89.346 91.0651 89.364C91.0783 89.382 91.0953 89.3969 91.1148 89.4077C91.1344 89.4185 91.156 89.425 91.1783 89.4266L111.479 90.8678C111.517 90.8702 111.554 90.8589 111.584 90.8359C111.614 90.813 111.634 90.78 111.642 90.7431L111.987 88.9632C111.992 88.9416 111.991 88.9194 111.986 88.898C111.981 88.8766 111.971 88.8565 111.958 88.8392C111.944 88.8218 111.927 88.8075 111.908 88.7972C111.888 88.787 111.867 88.781 111.845 88.7797L91.5584 87.5798L91.549 87.5795Z" fill="#E6E6E6"/>
<path d="M116.213 96.5819C116.25 96.5849 116.286 96.5747 116.316 96.5532C116.346 96.5318 116.367 96.5004 116.376 96.4648L116.816 94.6812C116.821 94.6594 116.822 94.6366 116.817 94.6145C116.813 94.5924 116.804 94.5715 116.791 94.5533C116.777 94.5351 116.76 94.52 116.741 94.5091C116.721 94.4982 116.699 94.4917 116.676 94.4901L90.7512 92.679C90.716 92.6762 90.681 92.6857 90.652 92.7057C90.6229 92.7258 90.6018 92.7553 90.592 92.7892L90.1349 94.3305C90.1284 94.3525 90.1269 94.3757 90.1305 94.3984C90.1341 94.4211 90.1427 94.4427 90.1557 94.4616C90.1687 94.4806 90.1858 94.4964 90.2057 94.5079C90.2256 94.5194 90.2478 94.5264 90.2707 94.5283L116.213 96.5819Z" fill="#E6E6E6"/>
<path d="M114.821 102.299C114.858 102.302 114.894 102.292 114.924 102.27C114.954 102.249 114.975 102.218 114.983 102.182L115.423 100.398C115.429 100.376 115.429 100.354 115.425 100.332C115.421 100.31 115.412 100.289 115.398 100.27C115.385 100.252 115.368 100.237 115.348 100.226C115.329 100.215 115.307 100.209 115.284 100.207L89.359 98.3961C89.3238 98.3933 89.2887 98.4028 89.2597 98.4228C89.2307 98.4429 89.2095 98.4724 89.1998 98.5063L88.7427 100.048C88.7361 100.07 88.7346 100.093 88.7382 100.116C88.7418 100.138 88.7504 100.16 88.7634 100.179C88.7765 100.198 88.7935 100.214 88.8134 100.225C88.8333 100.237 88.8555 100.243 88.8785 100.245L114.821 102.299Z" fill="#E6E6E6"/>
<path d="M69.8715 122.426C69.8715 123.719 58.0211 123.857 43.4358 124.767C28.8634 125.677 17 123.719 17 122.426C17 121.133 28.9188 118.531 43.4358 120.085C58.0211 121.646 69.8715 121.133 69.8715 122.426Z" fill="#E6E6E6"/>
<path d="M102.881 112.072C102.918 112.076 102.955 112.067 102.985 112.045C103.015 112.024 103.037 111.992 103.045 111.956L103.975 108.24C103.981 108.218 103.982 108.195 103.977 108.173C103.973 108.151 103.964 108.13 103.951 108.112C103.938 108.094 103.921 108.079 103.902 108.068C103.882 108.057 103.861 108.05 103.838 108.048L87.9178 106.711C87.8806 106.708 87.8438 106.719 87.8137 106.741C87.7837 106.763 87.7625 106.795 87.7538 106.831L86.9604 110.398C86.9556 110.419 86.9555 110.441 86.9599 110.463C86.9644 110.484 86.9734 110.504 86.9863 110.522C86.9992 110.54 87.0158 110.555 87.0349 110.566C87.054 110.576 87.0751 110.583 87.097 110.585L102.881 112.072Z" fill="#902C8C"/>
<path d="M38.5969 96.9288C38.7974 96.7916 38.9653 96.6121 39.0888 96.4031C39.2123 96.194 39.2884 95.9605 39.3117 95.7189C39.335 95.4772 39.305 95.2335 39.2238 95.0047C39.1426 94.7759 39.0121 94.5677 38.8416 94.3948L39.4862 80.022L36.2044 80.3899L36.3951 94.4485C36.1229 94.7537 35.9724 95.148 35.9719 95.5567C35.9715 95.9654 36.1212 96.3601 36.3927 96.6658C36.6642 96.9716 37.0387 97.1672 37.445 97.2156C37.8513 97.2639 38.2612 97.1617 38.597 96.9282L38.5969 96.9288Z" fill="#A0616A"/>
<path d="M44.5841 121.259L46.452 121.587L48.2981 114.546L45.8507 114.062L44.5841 121.259Z" fill="#A0616A"/>
<path d="M49.75 123.952L43.8795 122.921L44.2782 120.655L47.8806 121.288C48.4821 121.394 49.017 121.734 49.3676 122.233C49.7182 122.733 49.8557 123.351 49.75 123.952L49.75 123.952Z" fill="#2F2E41"/>
<path d="M39.4571 122.193H41.3537L42.2559 114.886H39.4568L39.4571 122.193Z" fill="#A0616A"/>
<path d="M45.0107 123.952L39.0501 123.952L39.05 121.652L42.7076 121.652C43.3184 121.652 43.9041 121.894 44.3361 122.325C44.768 122.757 45.0106 123.342 45.0107 123.952V123.952Z" fill="#2F2E41"/>
<path d="M47.3697 119.574C47.3401 119.574 47.3105 119.572 47.2812 119.568L45.0489 119.385C44.9473 119.373 44.8491 119.341 44.7605 119.29C44.6718 119.239 44.5944 119.17 44.533 119.088C44.4716 119.007 44.4275 118.913 44.4034 118.814C44.3792 118.714 44.3755 118.611 44.3925 118.511L46.6086 107.589L45.2163 100.254C45.205 100.194 45.1724 100.141 45.1247 100.103C45.0769 100.066 45.0172 100.047 44.9565 100.05C44.8959 100.053 44.8383 100.077 44.7946 100.119C44.7508 100.161 44.7237 100.218 44.7183 100.278L42.6669 118.917C42.6478 119.114 42.553 119.295 42.4027 119.423C42.2523 119.551 42.0581 119.615 41.861 119.603L39.7579 119.525C39.5736 119.512 39.4005 119.432 39.2712 119.3C39.1419 119.168 39.0654 118.993 39.0562 118.809L39.2242 96.2855L50.1273 94.9243L50.889 106.674L50.8859 106.686L48.1028 118.997C48.0627 119.162 47.9687 119.307 47.8358 119.412C47.7029 119.516 47.5388 119.573 47.3697 119.574V119.574Z" fill="#2F2E41"/>
<path d="M42.8198 70.7089C44.9181 70.7089 46.6192 69.0097 46.6192 66.9138C46.6192 64.8178 44.9181 63.1187 42.8198 63.1187C40.7214 63.1187 39.0203 64.8178 39.0203 66.9138C39.0203 69.0097 40.7214 70.7089 42.8198 70.7089Z" fill="#A0616A"/>
<path d="M46.3997 97.9996C45.8055 98.0031 45.2227 97.8366 44.7202 97.5197C42.8793 96.3707 40.7892 96.8273 39.707 97.2018C39.5996 97.2394 39.485 97.2522 39.372 97.2394C39.2589 97.2265 39.1502 97.1882 39.054 97.1275C38.9589 97.0679 38.8786 96.9875 38.819 96.8925C38.7594 96.7974 38.7222 96.6901 38.71 96.5787L36.7421 79.0218C36.4123 76.0801 38.1863 73.3144 40.9603 72.4456C41.0646 72.4129 41.1706 72.382 41.2782 72.3529C42.1415 72.1191 43.0455 72.0771 43.9267 72.2299C44.808 72.3827 45.645 72.7265 46.3788 73.2372C47.1264 73.7534 47.7516 74.427 48.2104 75.2106C48.6692 75.9942 48.9505 76.8688 49.0345 77.7727L50.6914 95.4473C50.7027 95.5617 50.6873 95.6772 50.6463 95.7846C50.6053 95.8921 50.5399 95.9885 50.4552 96.0664C49.8742 96.6029 48.1883 97.9994 46.3997 97.9996Z" fill="#902C8C"/>
<path d="M40.4067 82.7868L35.9669 82.2991C35.8406 82.2852 35.7187 82.2443 35.6096 82.1792C35.5005 82.114 35.4068 82.0261 35.3348 81.9215C35.2628 81.8169 35.2142 81.698 35.1923 81.573C35.1705 81.4479 35.1759 81.3196 35.2081 81.1968L36.3383 76.8941C36.3716 76.5717 36.4686 76.2589 36.6236 75.9741C36.7786 75.6893 36.9886 75.4379 37.2414 75.2346C37.4942 75.0313 37.7849 74.8801 38.0966 74.7896C38.4083 74.6992 38.7349 74.6714 39.0574 74.7078C39.3799 74.7441 39.692 74.844 39.9757 75.0016C40.2594 75.1591 40.5089 75.3713 40.71 75.6258C40.9111 75.8803 41.0597 76.1721 41.1472 76.4843C41.2347 76.7965 41.2594 77.1229 41.2199 77.4447L41.3877 81.8754C41.3925 82.0023 41.3699 82.1287 41.3214 82.2461C41.2729 82.3635 41.1996 82.469 41.1065 82.5555C41.0135 82.642 40.9029 82.7075 40.7822 82.7475C40.6615 82.7874 40.5336 82.8009 40.4073 82.7871L40.4067 82.7868Z" fill="#902C8C"/>
<path d="M50.6733 96.3134C50.8557 96.153 51.0007 95.9547 51.098 95.7324C51.1953 95.51 51.2427 95.269 51.2367 95.0264C51.2307 94.7838 51.1715 94.5455 51.0633 94.3282C50.9551 94.1109 50.8006 93.92 50.6105 93.7688L49.5164 79.4232L46.3004 80.1464L48.1877 94.1168C47.9543 94.4525 47.8524 94.8621 47.9013 95.2678C47.9501 95.6736 48.1464 96.0474 48.4528 96.3182C48.7592 96.5891 49.1545 96.7382 49.5637 96.7373C49.9729 96.7364 50.3675 96.5856 50.6727 96.3134H50.6733Z" fill="#A0616A"/>
<path d="M45.0676 81.885C44.9745 81.7985 44.9012 81.693 44.8527 81.5757C44.8042 81.4584 44.7815 81.332 44.7864 81.2051L44.9542 76.7744C44.918 76.4542 44.9453 76.1301 45.0346 75.8204C45.1238 75.5108 45.2732 75.2218 45.4743 74.9699C45.6753 74.7179 45.9241 74.508 46.2064 74.3521C46.4886 74.1961 46.7989 74.0973 47.1194 74.0611C47.44 74.025 47.7645 74.0523 48.0745 74.1414C48.3844 74.2305 48.6738 74.3797 48.926 74.5806C49.1783 74.7814 49.3885 75.0299 49.5445 75.3118C49.7006 75.5938 49.7996 75.9037 49.8358 76.2238L50.966 80.5265C50.9983 80.6493 51.0037 80.7776 50.9818 80.9026C50.9599 81.0277 50.9114 81.1466 50.8393 81.2512C50.7673 81.3558 50.6736 81.4437 50.5645 81.5089C50.4554 81.574 50.3336 81.6149 50.2072 81.6288L45.7675 82.1165C45.6411 82.1304 45.5132 82.1168 45.3925 82.0768C45.2718 82.0368 45.1612 81.9713 45.0682 81.8847L45.0676 81.885Z" fill="#902C8C"/>
<path d="M42.5937 70.8518C42.526 70.8518 42.4586 70.8439 42.3926 70.8284L42.3733 70.8238C39.0328 70.3139 38.2944 68.3806 38.1325 67.5736C37.9648 66.7379 38.1557 65.9314 38.5873 65.618C38.352 64.8763 38.3897 64.2179 38.6997 63.6615C39.2412 62.6912 40.4139 62.3636 40.5716 62.3228C41.5087 61.6323 42.6299 62.0932 42.834 62.1867C44.6469 61.5168 45.3401 62.0743 45.465 62.1989C46.2753 62.3443 46.7693 62.6569 46.9333 63.1284C47.2413 64.014 46.2673 65.1155 46.2257 65.162L46.204 65.1861L44.753 65.2552C44.6153 65.2618 44.4805 65.2972 44.3574 65.3591C44.2343 65.4211 44.1256 65.5082 44.0384 65.6148C43.9511 65.7214 43.8873 65.8451 43.851 65.9779C43.8147 66.1107 43.8068 66.2497 43.8277 66.3858C43.867 66.5614 43.9166 66.7345 43.9763 66.9042C44.2238 67.6777 44.4094 68.3386 44.1702 68.5898C44.116 68.6384 44.0491 68.6708 43.9773 68.6832C43.9055 68.6957 43.8316 68.6877 43.7642 68.6601C43.5372 68.5996 43.3833 68.6122 43.3066 68.698C43.1875 68.8307 43.2238 69.1669 43.409 69.6444C43.4671 69.7954 43.4827 69.9594 43.4542 70.1187C43.4257 70.2779 43.3541 70.4263 43.2472 70.5478C43.1667 70.6427 43.0665 70.719 42.9537 70.7714C42.8408 70.8239 42.7179 70.8513 42.5934 70.8518H42.5937Z" fill="#2F2E41"/>
<g clip-path="url(#clip1_460_1766)">
<path d="M98.6165 43.9915L98.4641 45.2789L98.3118 46.5663L98.1594 47.8537L98.0071 49.1412L97.8547 50.4286L97.7024 51.716L97.55 53.0035L98.8461 53.1568L100.142 53.3102L101.438 53.4636L102.734 53.617L104.03 53.7703L105.326 53.9237L106.623 54.0771L106.775 52.7897L106.927 51.5022L107.08 50.2148L107.232 48.9274L107.384 47.6399L107.537 46.3525L107.689 45.0651L106.393 44.9117L105.097 44.7583L103.801 44.605L102.505 44.4516L101.209 44.2982L99.9126 44.1448L98.6165 43.9915ZM108.985 45.2184L108.833 46.5059L108.68 47.7933L109.976 47.9467L110.129 46.6593L111.425 46.8126L111.577 45.5252L110.281 45.3718L108.985 45.2184ZM111.425 46.8126L111.273 48.1001L112.569 48.2534L112.721 46.966L111.425 46.8126ZM112.569 48.2534L112.416 49.5409L113.712 49.6942L115.008 49.8476L115.161 48.5602L115.313 47.2727L115.465 45.9853L114.169 45.8319L114.017 47.1194L113.865 48.4068L112.569 48.2534ZM112.416 49.5409L111.12 49.3875L109.824 49.2341L108.528 49.0807L108.376 50.3682L109.672 50.5215L110.968 50.6749L110.815 51.9623L109.519 51.809L109.367 53.0964L110.663 53.2498L110.511 54.5372L111.807 54.6906L111.959 53.4032L113.255 53.5565L113.103 54.844L111.807 54.6906L111.654 55.978L110.358 55.8246L110.206 57.1121L111.502 57.2654L112.798 57.4188L112.646 58.7062L113.942 58.8596L114.094 57.5722L114.247 56.2848L114.399 54.9973L114.551 53.7099L114.704 52.4225L113.408 52.2691L113.56 50.9817L112.264 50.8283L112.416 49.5409ZM112.646 58.7062L111.35 58.5529L111.197 59.8403L109.901 59.6869L109.749 60.9744L109.597 62.2618L110.893 62.4152L110.74 63.7026L110.588 64.99L109.292 64.8367L107.996 64.6833L108.148 63.3958L109.444 63.5492L109.597 62.2618L108.301 62.1084L108.453 60.821L108.605 59.5336L107.309 59.3802L107.462 58.0928L108.758 58.2461L108.605 59.5336L109.901 59.6869L110.054 58.3995L110.206 57.1121L108.91 56.9587L107.614 56.8053L107.766 55.5179L106.47 55.3645L105.174 55.2111L103.878 55.0578L103.726 56.3452L102.43 56.1918L102.277 57.4793L100.981 57.3259L101.134 56.0385L102.43 56.1918L102.582 54.9044L101.286 54.751L99.9898 54.5976L99.8375 55.8851L98.5414 55.7317L98.3891 57.0191L98.2367 58.3066L98.0844 59.594L99.3804 59.7474L99.5328 58.4599L100.829 58.6133L102.125 58.7667L103.421 58.9201L103.573 57.6326L104.869 57.786L105.022 56.4986L106.318 56.6519L106.165 57.9394L104.869 57.786L104.717 59.0734L106.013 59.2268L105.861 60.5142L104.565 60.3609L104.412 61.6483L105.708 61.8017L107.005 61.955L106.852 63.2425L106.7 64.5299L106.547 65.8173L107.844 65.9707L107.691 67.2581L108.987 67.4115L110.283 67.5649L111.579 67.7183L111.427 69.0057L110.131 68.8523L108.835 68.6989L107.539 68.5456L107.691 67.2581L106.395 67.1048L106.243 68.3922L106.09 69.6796L107.386 69.833L107.234 71.1204L105.938 70.9671L105.786 72.2545L107.082 72.4079L108.378 72.5612L108.53 71.2738L109.826 71.4272L109.674 72.7146L110.97 72.868L112.266 73.0214L113.562 73.1747L114.858 73.3281L115.011 72.0407L116.307 72.194L116.154 73.4815L117.45 73.6349L118.746 73.7882L120.043 73.9416L120.195 72.6542L118.899 72.5008L117.603 72.3474L117.755 71.06L116.459 70.9066L116.611 69.6192L115.315 69.4658L115.163 70.7532L113.867 70.5999L112.571 70.4465L112.418 71.7339L111.122 71.5806L111.275 70.2931L112.571 70.4465L112.723 69.1591L112.875 67.8716L113.028 66.5842L114.324 66.7376L114.476 65.4501L113.18 65.2968L111.884 65.1434L112.036 63.856L113.333 64.0093L113.485 62.7219L113.637 61.4345L113.79 60.1471L112.494 59.9937L112.646 58.7062ZM115.315 69.4658L115.468 68.1784L114.172 68.025L114.019 69.3124L115.315 69.4658ZM117.755 71.06L119.051 71.2134L120.347 71.3667L120.5 70.0793L119.204 69.9259L117.907 69.7726L117.755 71.06ZM120.5 70.0793L121.796 70.2327L121.948 68.9453L122.1 67.6578L122.253 66.3704L122.405 65.083L121.109 64.9296L119.813 64.7762L118.517 64.6228L118.669 63.3354L117.373 63.182L117.221 64.4695L115.925 64.3161L115.772 65.6035L115.62 66.891L116.916 67.0443L117.068 65.7569L118.364 65.9103L118.212 67.1977L118.06 68.4851L119.356 68.6385L120.652 68.7919L120.5 70.0793ZM117.373 63.182L117.525 61.8946L116.229 61.7412L114.933 61.5879L114.781 62.8753L116.077 63.0287L117.373 63.182ZM118.669 63.3354L119.965 63.4888L120.118 62.2014L120.27 60.9139L120.422 59.6265L121.718 59.7799L121.566 61.0673L122.862 61.2207L122.71 62.5081L124.006 62.6615L124.158 61.374L124.311 60.0866L123.014 59.9332L123.167 58.6458L124.463 58.7992L124.615 57.5118L123.319 57.3584L122.023 57.205L121.871 58.4924L120.575 58.3391L120.727 57.0516L119.431 56.8983L119.279 58.1857L117.983 58.0323L117.83 59.3197L119.126 59.4731L118.974 60.7605L118.822 62.048L118.669 63.3354ZM117.83 59.3197L116.534 59.1664L116.382 60.4538L117.678 60.6072L117.83 59.3197ZM122.71 62.5081L121.414 62.3547L121.261 63.6422L122.557 63.7955L122.71 62.5081ZM104.565 60.3609L104.717 59.0734L103.421 58.9201L103.269 60.2075L104.565 60.3609ZM103.269 60.2075L101.973 60.0541L100.677 59.9007L99.3804 59.7474L99.2281 61.0348L100.524 61.1882L101.82 61.3415L103.116 61.4949L103.269 60.2075ZM98.0844 59.594L96.7883 59.4406L96.6359 60.7281L97.932 60.8814L98.0844 59.594ZM98.5414 55.7317L98.6938 54.4443L97.3977 54.2909L97.2453 55.5783L98.5414 55.7317ZM107.766 55.5179L109.062 55.6713L109.215 54.3838L109.367 53.0964L108.071 52.943L107.919 54.2305L107.766 55.5179ZM116.762 46.1387L116.609 47.4261L116.457 48.7136L116.304 50.001L116.152 51.2884L116 52.5758L115.847 53.8633L115.695 55.1507L116.991 55.3041L118.287 55.4575L119.583 55.6108L120.879 55.7642L122.175 55.9176L123.472 56.0709L124.768 56.2243L124.92 54.9369L125.072 53.6495L125.225 52.362L125.377 51.0746L125.529 49.7872L125.682 48.4997L125.834 47.2123L124.538 47.0589L123.242 46.9056L121.946 46.7522L120.65 46.5988L119.354 46.4454L118.058 46.2921L116.762 46.1387ZM99.7602 45.4323L101.056 45.5856L102.352 45.739L103.648 45.8924L104.945 46.0458L106.241 46.1991L106.088 47.4866L105.936 48.774L105.784 50.0614L105.631 51.3489L105.479 52.6363L104.183 52.4829L102.887 52.3295L101.591 52.1762L100.295 52.0228L98.9985 51.8694L99.1508 50.582L99.3032 49.2946L99.4555 48.0071L99.6079 46.7197L99.7602 45.4323ZM117.905 47.5795L119.201 47.7329L120.497 47.8862L121.793 48.0396L123.09 48.193L124.386 48.3464L124.233 49.6338L124.081 50.9212L123.929 52.2087L123.776 53.4961L123.624 54.7835L122.328 54.6301L121.032 54.4768L119.736 54.3234L118.44 54.17L117.143 54.0166L117.296 52.7292L117.448 51.4418L117.601 50.1544L117.753 48.8669L117.905 47.5795ZM100.904 46.8731L100.752 48.1605L100.599 49.4479L100.447 50.7354L101.743 50.8887L103.039 51.0421L104.335 51.1955L104.487 49.908L104.64 48.6206L104.792 47.3332L103.496 47.1798L102.2 47.0264L100.904 46.8731ZM119.049 49.0203L118.897 50.3077L118.744 51.5952L118.592 52.8826L119.888 53.036L121.184 53.1893L122.48 53.3427L122.632 52.0553L122.785 50.7679L122.937 49.4804L121.641 49.327L120.345 49.1737L119.049 49.0203ZM115.543 56.4381L115.39 57.7256L116.686 57.8789L116.839 56.5915L115.543 56.4381ZM96.4836 62.0155L96.3312 63.3029L96.1789 64.5903L96.0265 65.8778L95.8742 67.1652L95.7218 68.4526L95.5695 69.7401L95.4171 71.0275L96.7132 71.1809L98.0093 71.3342L99.3053 71.4876L100.601 71.641L101.897 71.7944L103.194 71.9477L104.49 72.1011L104.642 70.8137L104.794 69.5263L104.947 68.2388L105.099 66.9514L105.251 65.664L105.404 64.3765L105.556 63.0891L104.26 62.9357L102.964 62.7824L101.668 62.629L100.372 62.4756L99.0757 62.3222L97.7797 62.1689L96.4836 62.0155ZM97.6273 63.4563L98.9234 63.6097L100.219 63.763L101.516 63.9164L102.812 64.0698L104.108 64.2232L103.955 65.5106L103.803 66.798L103.651 68.0854L103.498 69.3729L103.346 70.6603L102.05 70.5069L100.754 70.3536L99.4577 70.2002L98.1616 70.0468L96.8655 69.8934L97.0179 68.606L97.1702 67.3186L97.3226 66.0311L97.4749 64.7437L97.6273 63.4563ZM98.771 64.8971L98.6187 66.1845L98.4663 67.472L98.314 68.7594L99.61 68.9128L100.906 69.0661L102.202 69.2195L102.355 67.9321L102.507 66.6446L102.659 65.3572L101.363 65.2038L100.067 65.0505L98.771 64.8971ZM121.643 71.5201L121.491 72.8075L122.787 72.9609L122.939 71.6735L121.643 71.5201Z" fill="black"/>
</g>
</g>
</g>
<defs>
<filter id="filter0_d_460_1766" x="0" y="0" width="158" height="158" filterUnits="userSpaceOnUse" color-interpolation-filters="sRGB">
<feFlood flood-opacity="0" result="BackgroundImageFix"/>
<feColorMatrix in="SourceAlpha" type="matrix" values="0 0 0 0 0 0 0 0 0 0 0 0 0 0 0 0 0 0 127 0" result="hardAlpha"/>
<feOffset dy="4"/>
<feGaussianBlur stdDeviation="2"/>
<feComposite in2="hardAlpha" operator="out"/>
<feColorMatrix type="matrix" values="0 0 0 0 0 0 0 0 0 0 0 0 0 0 0 0 0 0 0.25 0"/>
<feBlend mode="normal" in2="BackgroundImageFix" result="effect1_dropShadow_460_1766"/>
<feBlend mode="normal" in="SourceGraphic" in2="effect1_dropShadow_460_1766" result="shape"/>
</filter>
<filter id="filter1_d_460_1766" x="0" y="0" width="158" height="158" filterUnits="userSpaceOnUse" color-interpolation-filters="sRGB">
<feFlood flood-opacity="0" result="BackgroundImageFix"/>
<feColorMatrix in="SourceAlpha" type="matrix" values="0 0 0 0 0 0 0 0 0 0 0 0 0 0 0 0 0 0 127 0" result="hardAlpha"/>
<feOffset dy="4"/>
<feGaussianBlur stdDeviation="2"/>
<feComposite in2="hardAlpha" operator="out"/>
<feColorMatrix type="matrix" values="0 0 0 0 0 0 0 0 0 0 0 0 0 0 0 0 0 0 0.25 0"/>
<feBlend mode="normal" in2="BackgroundImageFix" result="effect1_dropShadow_460_1766"/>
<feBlend mode="normal" in="SourceGraphic" in2="effect1_dropShadow_460_1766" result="shape"/>
</filter>
<clipPath id="clip0_460_1766">
<rect width="124" height="100" fill="white" transform="translate(17 25)"/>
</clipPath>
<clipPath id="clip1_460_1766">
<rect width="29.3481" height="29.3481" fill="white" transform="translate(97.4489 43) rotate(6.74884)"/>
</clipPath>
</defs>
</svg>
