<svg width="224" height="176" viewBox="0 0 224 176" fill="none" xmlns="http://www.w3.org/2000/svg">
<g clip-path="url(#clip0_205_1677)">
<path d="M203.899 160.67C199.605 165.27 194.684 169.243 189.283 172.47C189.159 172.546 189.033 172.618 188.906 172.692L180.162 164.946C180.254 164.861 180.356 164.765 180.465 164.66C186.981 158.468 219.327 115.178 221.482 104.636C221.333 105.515 223.427 139.956 203.899 160.67Z" fill="#F0F0F0"/>
<path d="M190.97 173.965C190.805 174.004 190.636 174.041 190.468 174.075L183.907 168.264C184.036 168.219 184.185 168.166 184.357 168.107C187.172 167.11 195.555 164.098 203.898 160.669C212.863 156.982 221.784 152.817 223.703 150.148C223.291 150.768 210.613 169.569 190.97 173.965Z" fill="#F0F0F0"/>
<path d="M203.777 46.0939H202.843V20.4812C202.843 18.5345 202.46 16.6068 201.715 14.8083C200.971 13.0098 199.88 11.3756 198.504 9.99907C197.129 8.62253 195.496 7.53061 193.699 6.78563C191.902 6.04066 189.976 5.65723 188.03 5.65723H133.807C131.862 5.65722 129.936 6.04065 128.138 6.78562C126.341 7.53059 124.708 8.62251 123.333 9.99904C121.957 11.3756 120.866 13.0097 120.122 14.8083C119.377 16.6068 118.994 18.5344 118.994 20.4811V160.995C118.994 162.941 119.377 164.869 120.122 166.667C120.866 168.466 121.957 170.1 123.333 171.477C124.708 172.853 126.341 173.945 128.138 174.69C129.936 175.435 131.862 175.818 133.807 175.818H188.03C189.975 175.819 191.902 175.435 193.699 174.69C195.496 173.945 197.129 172.853 198.504 171.477C199.88 170.1 200.971 168.466 201.715 166.667C202.46 164.869 202.843 162.941 202.843 160.995V64.3255H203.777V46.0939Z" fill="#3F3D56"/>
<path d="M199.69 20.583V160.892C199.69 162.346 199.404 163.785 198.848 165.128C198.292 166.472 197.477 167.692 196.449 168.72C195.422 169.747 194.202 170.563 192.86 171.119C191.517 171.675 190.079 171.961 188.626 171.96H134.142C132.69 171.96 131.251 171.674 129.909 171.118C128.568 170.562 127.348 169.746 126.321 168.718C125.294 167.691 124.48 166.471 123.924 165.128C123.368 163.785 123.082 162.345 123.082 160.892V20.583C123.082 19.1295 123.368 17.6902 123.924 16.3473C124.48 15.0044 125.294 13.7843 126.321 12.7565C127.348 11.7287 128.568 10.9134 129.909 10.3572C131.251 9.80106 132.69 9.51484 134.142 9.51495H140.754C140.429 10.3136 140.306 11.1798 140.394 12.0374C140.483 12.895 140.78 13.7178 141.261 14.4332C141.742 15.1487 142.391 15.735 143.151 16.1406C143.911 16.5462 144.759 16.7586 145.621 16.7592H176.684C177.546 16.76 178.395 16.5485 179.156 16.1433C179.917 15.7381 180.567 15.1517 181.048 14.4358C181.529 13.7199 181.826 12.8965 181.914 12.0384C182.002 11.1802 181.877 10.3136 181.551 9.51495H188.626C190.079 9.51443 191.517 9.80032 192.86 10.3563C194.202 10.9123 195.422 11.7275 196.449 12.7553C197.477 13.7831 198.292 15.0034 198.848 16.3465C199.404 17.6896 199.69 19.1292 199.69 20.583Z" fill="white"/>
<path d="M182.742 93.495H134.852C134.013 93.494 133.209 93.1602 132.616 92.5666C132.022 91.973 131.689 91.1682 131.688 90.3288V88.7528C131.689 87.9133 132.022 87.1085 132.616 86.515C133.209 85.9214 134.013 85.5875 134.852 85.5865H182.742C183.581 85.5875 184.385 85.9214 184.978 86.515C185.571 87.1085 185.905 87.9133 185.906 88.7528V90.3288C185.905 91.1682 185.571 91.973 184.978 92.5666C184.385 93.1602 183.581 93.494 182.742 93.495Z" fill="#F0F0F0"/>
<path d="M182.742 107.08H134.852C134.013 107.079 133.209 106.746 132.616 106.152C132.022 105.558 131.689 104.754 131.688 103.914V102.338C131.689 101.499 132.022 100.694 132.616 100.1C133.209 99.5068 134.013 99.1729 134.852 99.1719H182.742C183.581 99.1729 184.385 99.5068 184.978 100.1C185.571 100.694 185.905 101.499 185.906 102.338V103.914C185.905 104.754 185.571 105.558 184.978 106.152C184.385 106.746 183.581 107.079 182.742 107.08Z" fill="#F0F0F0"/>
<path d="M185.137 90.4566H137.247C136.367 90.4556 135.522 90.105 134.899 89.4818C134.277 88.8585 133.926 88.0135 133.925 87.1321V85.5561C133.926 84.6747 134.277 83.8297 134.899 83.2064C135.522 82.5832 136.367 82.2326 137.247 82.2316H185.137C186.018 82.2326 186.863 82.5832 187.485 83.2064C188.108 83.8297 188.458 84.6747 188.459 85.5561V87.1321C188.458 88.0135 188.108 88.8585 187.485 89.4818C186.863 90.105 186.018 90.4556 185.137 90.4566ZM137.247 82.8648C136.534 82.8656 135.851 83.1494 135.347 83.654C134.842 84.1585 134.559 84.8426 134.558 85.5561V87.1321C134.559 87.8456 134.842 88.5297 135.347 89.0342C135.851 89.5388 136.534 89.8226 137.247 89.8234H185.137C185.85 89.8226 186.534 89.5388 187.038 89.0342C187.542 88.5297 187.826 87.8456 187.827 87.1321V85.5561C187.826 84.8426 187.542 84.1585 187.038 83.654C186.534 83.1494 185.85 82.8656 185.137 82.8648H137.247Z" fill="#3F3D56"/>
<path d="M185.137 104.042H137.247C136.367 104.041 135.522 103.69 134.899 103.067C134.277 102.444 133.926 101.599 133.925 100.717V99.1415C133.926 98.2601 134.277 97.4151 134.899 96.7918C135.522 96.1685 136.367 95.818 137.247 95.817H185.137C186.018 95.818 186.863 96.1685 187.485 96.7918C188.108 97.4151 188.458 98.2601 188.459 99.1415V100.717C188.458 101.599 188.108 102.444 187.485 103.067C186.863 103.69 186.018 104.041 185.137 104.042ZM137.247 96.4502C136.534 96.451 135.851 96.7348 135.347 97.2393C134.842 97.7439 134.559 98.428 134.558 99.1415V100.717C134.559 101.431 134.842 102.115 135.347 102.62C135.851 103.124 136.534 103.408 137.247 103.409H185.137C185.85 103.408 186.534 103.124 187.038 102.62C187.542 102.115 187.826 101.431 187.827 100.717V99.1415C187.826 98.428 187.542 97.7439 187.038 97.2393C186.534 96.7348 185.85 96.451 185.137 96.4502H137.247Z" fill="#3F3D56"/>
<path d="M199.69 20.583V51.1022C194.844 52.378 189.771 52.5243 184.86 51.53C179.948 50.5357 175.331 48.4272 171.362 45.3667C167.392 42.3062 164.178 38.3753 161.965 33.8765C159.752 29.3776 158.6 24.4307 158.597 19.4163C158.597 18.5213 158.633 17.6356 158.705 16.7592H176.684C177.546 16.76 178.395 16.5485 179.156 16.1433C179.917 15.7381 180.567 15.1517 181.048 14.4358C181.529 13.7199 181.826 12.8965 181.914 12.0384C182.002 11.1802 181.877 10.3136 181.551 9.51495H188.626C190.079 9.51443 191.517 9.80032 192.86 10.3563C194.202 10.9123 195.422 11.7275 196.449 12.7553C197.477 13.7831 198.292 15.0034 198.848 16.3465C199.404 17.6896 199.69 19.1292 199.69 20.583Z" fill="#F0F0F0"/>
<path d="M150.612 170.054C150.612 170.697 150.588 171.333 150.536 171.96H134.142C132.69 171.96 131.251 171.674 129.909 171.118C128.568 170.561 127.348 169.746 126.321 168.718C125.294 167.691 124.48 166.47 123.924 165.128C123.368 163.785 123.082 162.345 123.082 160.892V145.884C126.519 145.437 130.011 145.728 133.326 146.737C136.641 147.747 139.703 149.452 142.308 151.739C144.913 154.026 147.001 156.843 148.433 160.001C149.865 163.159 150.608 166.586 150.612 170.054H150.612Z" fill="#902C8C"/>
<path d="M18.3887 143.721C18.8493 143.924 19.3715 143.935 19.8408 143.753C20.31 143.571 20.6879 143.21 20.8916 142.75L35.6602 109.253C35.9982 108.486 36.1015 107.637 35.957 106.811C35.8125 105.986 35.4266 105.222 34.8483 104.616C34.2699 104.011 33.5251 103.59 32.7078 103.408C31.8906 103.226 31.0378 103.29 30.2572 103.593H30.2571C29.3553 103.938 28.6006 104.584 28.1215 105.423C28.0453 105.556 27.9762 105.693 27.9144 105.833L13.1458 139.329C13.0452 139.558 12.9905 139.803 12.9847 140.053C12.979 140.302 13.0225 140.55 13.1126 140.783C13.2027 141.016 13.3378 141.228 13.51 141.409C13.6822 141.589 13.8882 141.734 14.1163 141.834L18.3887 143.721Z" fill="#902C8C"/>
<path d="M35.0539 123.005L20.4459 119.756L24.0615 110.184C24.6774 107.844 26.1109 105.803 28.1018 104.431C30.0927 103.058 32.5093 102.445 34.9132 102.703L35.0539 102.718L35.0539 123.005Z" fill="#2F2E41"/>
<path d="M64.5598 144.2C64.1301 144.199 63.7099 144.074 63.3498 143.839C62.9898 143.604 62.7055 143.27 62.5312 142.877L47.7626 109.381C47.2929 108.315 47.2493 107.11 47.6406 106.013C48.0319 104.916 48.8285 104.01 49.8664 103.483C50.9044 102.956 52.1047 102.847 53.2205 103.179C54.3363 103.51 55.2827 104.257 55.865 105.266V105.265C55.9469 105.408 56.0211 105.555 56.0873 105.705L70.8559 139.202C71.093 139.739 71.1069 140.349 70.8946 140.898C70.6822 141.446 70.261 141.887 69.7237 142.124L65.3065 144.074L65.3042 144.069C65.0655 144.156 64.8136 144.2 64.5598 144.2Z" fill="#902C8C"/>
<path d="M44.131 132.697C43.6277 132.698 43.1452 132.898 42.7893 133.254C42.4334 133.61 42.2332 134.093 42.2327 134.597V173.546C42.2332 174.05 42.4334 174.533 42.7893 174.889C43.1452 175.245 43.6277 175.445 44.131 175.446H48.8007C49.3039 175.445 49.7865 175.245 50.1423 174.889C50.4982 174.533 50.6984 174.05 50.699 173.546V134.597C50.6984 134.093 50.4982 133.61 50.1423 133.254C49.7865 132.898 49.3039 132.698 48.8007 132.697H44.131Z" fill="#902C8C"/>
<path d="M34.895 132.697C34.3917 132.698 33.9092 132.898 33.5533 133.254C33.1974 133.61 32.9973 134.093 32.9967 134.597V173.546C32.9973 174.05 33.1974 174.533 33.5533 174.889C33.9092 175.245 34.3917 175.445 34.895 175.446H39.5648C40.068 175.445 40.5506 175.245 40.9064 174.889C41.2623 174.533 41.4625 174.05 41.4631 173.546V134.597C41.4625 134.093 41.2623 133.61 40.9064 133.254C40.5506 132.898 40.068 132.698 39.5648 132.697H34.895Z" fill="#902C8C"/>
<path d="M41.7083 91.8914C50.6198 91.8914 57.8439 84.6618 57.8439 75.7437C57.8439 66.8255 50.6198 59.5959 41.7083 59.5959C32.7969 59.5959 25.5728 66.8255 25.5728 75.7437C25.5728 84.6618 32.7969 91.8914 41.7083 91.8914Z" fill="#902C8C"/>
<path d="M47.078 82.5222C48.1239 82.4932 49.4256 82.4568 50.4285 81.7237C50.7271 81.4964 50.9724 81.2066 51.1473 80.8745C51.3222 80.5423 51.4224 80.1759 51.4409 79.8009C51.4591 79.5344 51.4154 79.2674 51.3133 79.0206C51.2112 78.7738 51.0534 78.554 50.8523 78.3783C50.3286 77.9354 49.5637 77.8315 48.7395 78.0739L49.5934 71.8283L48.9665 71.7424L47.9626 79.0848L48.4861 78.8444C49.093 78.5658 49.9262 78.4241 50.4439 78.8619C50.571 78.9764 50.6701 79.1186 50.7333 79.2776C50.7966 79.4366 50.8223 79.6081 50.8086 79.7787C50.7932 80.0578 50.718 80.3303 50.588 80.5776C50.458 80.825 50.2763 81.0415 50.0552 81.2123C49.2748 81.7828 48.2372 81.8563 47.0604 81.8893L47.078 82.5222Z" fill="#2F2E41"/>
<path d="M56.1017 72.3669H52.6937V73.0002H56.1017V72.3669Z" fill="#2F2E41"/>
<path d="M45.3446 72.3669H41.9366V73.0002H45.3446V72.3669Z" fill="#2F2E41"/>
<path d="M57.6964 144.397L51.8888 101.969C51.8265 101.514 51.6017 101.097 51.2559 100.795C50.9101 100.494 50.4668 100.327 50.008 100.327H45.6243C45.6426 100.223 45.6521 100.117 45.6528 100.011V98.4276C45.6528 97.9237 45.4527 97.4405 45.0967 97.0843C44.7407 96.728 44.2579 96.5278 43.7545 96.5278H39.9579C39.4544 96.5278 38.9716 96.728 38.6156 97.0843C38.2596 97.4405 38.0596 97.9237 38.0595 98.4276V100.011C38.0602 100.117 38.0697 100.223 38.088 100.327H33.7043C33.2455 100.327 32.8022 100.494 32.4564 100.795C32.1106 101.097 31.8858 101.514 31.8235 101.969L26.0159 144.397C25.9791 144.665 26.0003 144.939 26.0779 145.199C26.1556 145.459 26.288 145.699 26.4661 145.903C26.6443 146.108 26.8642 146.272 27.1109 146.384C27.3577 146.496 27.6256 146.554 27.8966 146.554H55.8157C56.0867 146.554 56.3546 146.496 56.6014 146.384C56.8481 146.272 57.068 146.108 57.2461 145.903C57.4243 145.699 57.5567 145.459 57.6343 145.199C57.712 144.939 57.7332 144.665 57.6964 144.397Z" fill="#2F2E41"/>
<path d="M48.6584 123.005V102.718L48.7991 102.703C51.2059 102.445 53.6252 103.06 55.6174 104.436C57.6096 105.812 59.0426 107.857 59.656 110.201L63.2664 119.756L48.6584 123.005Z" fill="#2F2E41"/>
<path d="M40.8958 92.3953L29.7352 88.0601C27.9102 87.3512 26.075 86.6639 24.2597 85.9306C23.4821 85.6595 22.7658 85.237 22.1521 84.6875C21.6178 84.1215 21.2536 83.4162 21.1014 82.6526C20.7143 81.0153 20.7843 79.2251 20.8119 77.5542C20.8333 75.7263 20.9836 73.9022 21.2617 72.0954C21.7491 68.7003 22.8936 65.4329 24.6313 62.4763C27.7612 57.337 33.1538 53.4704 39.3567 53.779C42.2284 53.9219 45.1167 54.9531 47.2503 56.918C47.4729 57.1842 47.7226 57.4264 47.9954 57.6407C48.185 57.7119 48.3914 57.7257 48.5888 57.6806C48.8492 57.6638 49.1098 57.651 49.3706 57.6422C50.2755 57.604 51.182 57.642 52.0806 57.7559C53.718 57.933 55.27 58.5779 56.5512 59.6137C57.6174 60.5316 58.485 61.8274 58.5743 63.2674C58.6174 63.9285 58.5082 64.5906 58.2551 65.2028C58.0019 65.8149 57.6117 66.3607 57.1144 66.798C55.7829 67.921 53.8831 67.5263 52.286 67.4416L46.4348 67.1314L43.4702 66.9742C42.8598 66.9418 42.8616 67.8918 43.4702 67.924L51.3498 68.3418C52.616 68.4089 53.921 68.5735 55.1883 68.4975C56.162 68.4534 57.0918 68.079 57.8248 67.4361C58.4942 66.8206 58.9929 66.0421 59.2721 65.1764C59.5514 64.3107 59.6017 63.3874 59.4183 62.4964C59.012 60.5531 57.5669 58.9456 55.8727 57.9892C53.5675 56.688 50.8143 56.5633 48.2349 56.7557L48.5705 56.8948C45.6527 53.7608 41.1834 52.4376 36.9876 52.9006C32.5575 53.3896 28.6173 55.8629 25.7863 59.245C22.6299 63.0158 20.9099 67.7176 20.2412 72.5526C19.8932 75.163 19.7786 77.7992 19.8989 80.43C19.8939 81.5903 20.0922 82.7424 20.4849 83.8341C20.9329 84.8965 21.7428 85.7656 22.7708 86.2867C23.9493 86.856 25.1609 87.3541 26.399 87.7782L30.5108 89.3754L38.5876 92.5127L40.6435 93.3112C41.2133 93.5326 41.4601 92.6145 40.8958 92.3953Z" fill="#2F2E41"/>
<path d="M23.3477 60.1163C22.3778 60.1163 21.4296 59.8284 20.6232 59.2892C19.8167 58.7499 19.1882 57.9834 18.817 57.0867C18.4459 56.1899 18.3487 55.2032 18.538 54.2512C18.7272 53.2992 19.1942 52.4247 19.8801 51.7384C20.5659 51.052 21.4397 50.5846 22.391 50.3953C23.3422 50.2059 24.3283 50.3031 25.2243 50.6745C26.1204 51.046 26.8863 51.675 27.4252 52.4821C27.964 53.2891 28.2516 54.238 28.2516 55.2086C28.2502 56.5098 27.733 57.7572 26.8137 58.6772C25.8943 59.5973 24.6478 60.1148 23.3477 60.1163ZM23.3477 51.2508C22.5655 51.2508 21.8009 51.483 21.1505 51.9178C20.5001 52.3527 19.9933 52.9708 19.6939 53.694C19.3946 54.4172 19.3163 55.213 19.4689 55.9807C19.6215 56.7485 19.9981 57.4537 20.5512 58.0072C21.1043 58.5607 21.809 58.9376 22.5761 59.0903C23.3433 59.2431 24.1385 59.1647 24.8611 58.8651C25.5838 58.5656 26.2014 58.0583 26.636 57.4074C27.0705 56.7566 27.3025 55.9914 27.3025 55.2086C27.3013 54.1593 26.8843 53.1533 26.1428 52.4113C25.4014 51.6694 24.3962 51.252 23.3477 51.2508Z" fill="#2F2E41"/>
<path d="M105.324 90.5294L94.7097 82.4052L86.5916 93.0275L97.2059 101.152L105.324 90.5294Z" fill="#F0F0F0"/>
<path d="M45.3364 18.0055C47.0134 18.0042 48.6675 18.3959 50.1661 19.1492C51.6648 19.9026 52.9663 20.9967 53.9665 22.3439L60.1644 14.234L41.5677 0L27.3445 18.6107L35.3596 24.7456C36.1617 22.7548 37.5401 21.0494 39.3178 19.8484C41.0956 18.6474 43.1915 18.0056 45.3364 18.0055Z" fill="#F0F0F0"/>
<path d="M223.684 176H0.316384C0.232474 176 0.152 175.967 0.0926665 175.907C0.033333 175.848 0 175.767 0 175.683C0 175.599 0.033333 175.519 0.0926665 175.46C0.152 175.4 0.232474 175.367 0.316384 175.367H223.684C223.768 175.367 223.848 175.4 223.907 175.46C223.967 175.519 224 175.599 224 175.683C224 175.767 223.967 175.848 223.907 175.907C223.848 175.967 223.768 176 223.684 176Z" fill="#3F3D56"/>
<path d="M169.167 123.463H146.431C145.592 123.462 144.788 123.128 144.194 122.534C143.601 121.941 143.268 121.136 143.267 120.296V118.72C143.268 117.881 143.601 117.076 144.194 116.483C144.788 115.889 145.592 115.555 146.431 115.554H169.167C170.005 115.555 170.81 115.889 171.403 116.483C171.996 117.076 172.33 117.881 172.33 118.72V120.296C172.33 121.136 171.996 121.941 171.403 122.534C170.81 123.128 170.005 123.462 169.167 123.463Z" fill="#902C8C"/>
<path d="M171.562 120.424H148.826C147.945 120.423 147.101 120.073 146.478 119.45C145.855 118.826 145.505 117.981 145.504 117.1V115.524C145.505 114.643 145.855 113.797 146.478 113.174C147.101 112.551 147.945 112.2 148.826 112.199H171.562C172.443 112.2 173.287 112.551 173.91 113.174C174.533 113.797 174.883 114.643 174.884 115.524V117.1C174.883 117.981 174.533 118.826 173.91 119.45C173.287 120.073 172.443 120.423 171.562 120.424ZM148.826 112.833C148.113 112.833 147.43 113.117 146.925 113.622C146.421 114.126 146.138 114.81 146.137 115.524V117.1C146.138 117.813 146.421 118.498 146.925 119.002C147.43 119.507 148.113 119.79 148.826 119.791H171.562C172.275 119.79 172.959 119.507 173.463 119.002C173.967 118.498 174.251 117.813 174.252 117.1V115.524C174.251 114.81 173.967 114.126 173.463 113.622C172.959 113.117 172.275 112.833 171.562 112.833H148.826Z" fill="#3F3D56"/>
</g>
<defs>
<clipPath id="clip0_205_1677">
<rect width="224" height="176" fill="white"/>
</clipPath>
</defs>
</svg>
