<svg width="145" height="136" viewBox="0 0 145 136" fill="none" xmlns="http://www.w3.org/2000/svg">
<g filter="url(#filter0_d_59_835)">
<rect x="4.5" y="0.5" width="136" height="127" rx="12.5" fill="#FAFAFA" stroke="#EFEFEF"/>
<g clip-path="url(#clip0_59_835)">
<path d="M118.13 76.5224C117.415 77.4038 116.529 78.06 115.567 78.5695H115.566C115.475 78.6179 115.385 78.6651 115.293 78.7096H115.292L115.291 78.7109L115.289 78.7096H115.288C115.288 78.7098 115.288 78.71 115.288 78.7101C115.288 78.7103 115.288 78.7104 115.288 78.7106C115.288 78.7107 115.288 78.7108 115.288 78.7108C115.287 78.7109 115.287 78.7109 115.287 78.7109H115.286L115.285 78.7096C115.284 78.7109 115.284 78.7109 115.282 78.7096L115.281 78.7109L115.28 78.7096H115.279C115.278 78.7109 115.278 78.7109 115.277 78.7096H115.275C114.632 79.024 113.97 79.2908 113.296 79.5086C109.329 80.7786 105.16 81.0244 101.098 80.2276C101.021 80.2119 100.944 80.1962 100.866 80.1805V69.5572C100.943 69.5205 101.021 69.4839 101.098 69.4485C101.605 69.2114 102.119 68.9936 102.638 68.7949C103.386 68.5068 104.143 68.2597 104.911 68.0536C107.418 67.369 110.004 67.133 112.575 67.3542C113.043 67.3935 113.509 67.4503 113.975 67.5245C114.948 67.6777 115.969 67.9449 116.868 68.4086H116.869C117 68.478 117.129 68.55 117.256 68.6273C118.055 69.1158 118.728 69.7877 119.139 70.7085C119.286 71.0391 119.392 71.3913 119.454 71.7549V71.7576C119.477 71.8833 119.494 72.0103 119.506 72.1361C119.653 73.6868 119.083 75.3462 118.13 76.5224Z" fill="#F2F2F2"/>
<path d="M119.506 72.1361C119.495 72.1393 119.483 72.141 119.472 72.1413C117.484 72.2395 115.499 72.3854 113.516 72.5788H113.513C113.505 72.5801 113.498 72.5801 113.49 72.5814C111.454 72.7805 109.423 73.0297 107.396 73.3292C107.31 73.3423 107.225 73.3554 107.141 73.3672C105.739 73.5781 104.34 73.8121 102.943 74.0692C102.327 74.1832 101.712 74.3019 101.098 74.4255C101.021 74.4412 100.944 74.4556 100.866 74.4726V74.0758C100.944 74.0588 101.022 74.0444 101.098 74.0286C103.143 73.62 105.195 73.2633 107.253 72.9586C107.771 72.88 108.289 72.8058 108.808 72.7359C110.308 72.5316 111.809 72.3552 113.313 72.2068C113.423 72.1963 113.532 72.1858 113.643 72.1754C115.568 71.9907 117.496 71.8505 119.426 71.7549C119.436 71.7545 119.445 71.7553 119.454 71.7576C119.64 71.7759 119.679 72.0902 119.506 72.1361Z" fill="white"/>
<path d="M115.378 78.3237C112.902 78.3442 110.462 77.1591 108.711 75.1974C108.216 74.6418 107.781 74.0234 107.413 73.3546C107.295 73.1409 107.018 73.3766 107.136 73.5885C108.496 76.0508 110.762 77.8049 113.26 78.4499C113.97 78.6313 114.695 78.7189 115.423 78.711C115.645 78.7092 115.599 78.3218 115.378 78.3237V78.3237Z" fill="white"/>
<path d="M104.911 68.0536C104.901 68.0904 104.882 68.1235 104.856 68.1495C104.831 68.1754 104.8 68.1934 104.766 68.2016C104.199 68.3695 103.651 68.6112 103.133 68.922C102.376 69.3729 101.689 69.959 101.098 70.6574C101.067 70.6927 101.037 70.7281 101.008 70.7648C100.959 70.8224 100.913 70.8813 100.866 70.9416V70.3705C100.94 70.2815 101.018 70.1937 101.098 70.1099C101.565 69.6058 102.082 69.1645 102.638 68.7949C103.386 68.5068 104.143 68.2597 104.911 68.0536Z" fill="white"/>
<path d="M117.073 68.3053C115.498 69.0695 114.18 70.3811 113.311 72.0493C113.293 72.097 113.293 72.1507 113.31 72.1986C113.327 72.2465 113.36 72.2848 113.402 72.3052C113.445 72.3241 113.492 72.3238 113.534 72.3045C113.576 72.2852 113.61 72.2483 113.629 72.2014C114.459 70.6258 115.71 69.3883 117.203 68.6672C117.408 68.5685 117.278 68.2064 117.073 68.3053L117.073 68.3053Z" fill="white"/>
<path d="M121.822 57.1815C121.552 58.3367 121.036 59.3832 120.394 60.338L120.393 60.3393C120.334 60.4283 120.272 60.5187 120.209 60.6052V60.6065C119.763 61.226 119.282 61.8118 118.768 62.3602C116.923 64.3456 114.838 66.0268 112.575 67.3542C109.016 69.4524 105.038 70.6927 101.098 70.7635C101.068 70.7648 101.038 70.7648 101.008 70.7648C100.96 70.7661 100.913 70.7661 100.866 70.7661V64.8133C100.942 64.6509 101.019 64.4885 101.098 64.3274C102.122 62.2482 103.371 60.3203 104.815 58.5882C104.85 58.5449 104.886 58.5017 104.922 58.4598C105.465 57.8128 106.034 57.1968 106.63 56.6118C108.922 54.3376 111.57 52.5674 114.439 51.3925C115.364 51.0179 116.378 50.718 117.364 50.659C117.509 50.6499 117.653 50.6459 117.798 50.6472C118.707 50.6617 119.578 50.904 120.322 51.5038C120.589 51.7197 120.828 51.9758 121.033 52.2648C121.104 52.3656 121.171 52.4691 121.234 52.5752V52.5765C122.003 53.8731 122.181 55.64 121.822 57.1815Z" fill="#F2F2F2"/>
<path d="M121.234 52.5752V52.5765C121.226 52.585 121.217 52.5924 121.207 52.5988C119.489 53.7264 117.793 54.8952 116.119 56.1049C116.117 56.1062 116.116 56.1075 116.113 56.1088C116.107 56.1141 116.1 56.1189 116.092 56.1233C114.372 57.3675 112.675 58.6537 111.003 59.9817C110.933 60.0367 110.862 60.0931 110.792 60.1494C109.637 61.0701 108.494 62.0105 107.364 62.9705C105.228 64.7858 103.14 66.6684 101.098 68.6181C101.021 68.6915 100.944 68.7661 100.866 68.8408V68.3313C100.943 68.2566 101.021 68.182 101.098 68.1086C101.88 67.3634 102.67 66.6286 103.466 65.9044C103.704 65.6882 103.943 65.4721 104.182 65.2587C106.305 63.3504 108.476 61.5132 110.695 59.7473H110.696C111.133 59.4002 111.57 59.0562 112.008 58.7152C113.252 57.7486 114.51 56.8052 115.782 55.8849C115.873 55.8181 115.966 55.7513 116.059 55.6845C117.687 54.511 119.336 53.3759 121.007 52.2792C121.015 52.2736 121.024 52.2688 121.033 52.2648C121.207 52.1862 121.37 52.4455 121.234 52.5752Z" fill="white"/>
<path d="M120.126 60.2192C117.941 61.5357 115.293 61.7653 112.935 60.9465C112.268 60.7136 111.628 60.3943 111.027 59.995C110.834 59.8677 110.687 60.2212 110.878 60.3474C113.096 61.8148 115.824 62.1801 118.302 61.4415C119.005 61.2302 119.684 60.9273 120.325 60.5389C120.521 60.4209 120.321 60.102 120.126 60.2192V60.2192Z" fill="white"/>
<path d="M103.781 65.0114C103.673 64.3257 103.636 63.6282 103.671 62.9329C103.749 61.3472 104.179 59.8091 104.922 58.4601C105.466 57.8133 106.035 57.1972 106.63 56.6117C106.636 56.65 106.633 56.6893 106.621 56.7257C106.609 56.7621 106.589 56.7944 106.562 56.8193C106.129 57.2656 105.743 57.7669 105.412 58.3134C104.23 60.261 103.768 62.6528 104.126 64.9789C104.132 65.0053 104.132 65.0329 104.125 65.0592C104.119 65.0854 104.107 65.1093 104.09 65.1286C104.065 65.153 104.035 65.1697 104.003 65.1769C103.97 65.1841 103.937 65.1817 103.906 65.1698C103.875 65.158 103.847 65.1371 103.825 65.1093C103.803 65.0815 103.788 65.0477 103.781 65.0114V65.0114Z" fill="white"/>
<path d="M117.503 50.459C116.423 51.9615 115.795 53.8141 115.712 55.747C115.716 55.7985 115.738 55.8461 115.773 55.8795C115.808 55.9129 115.854 55.9294 115.899 55.9254C115.944 55.9199 115.986 55.895 116.016 55.8557C116.045 55.8164 116.06 55.7659 116.057 55.7146C116.143 53.8844 116.742 52.1324 117.767 50.7112C117.908 50.5164 117.644 50.2637 117.503 50.459Z" fill="white"/>
<path d="M105.486 54.7624V54.7638C105.478 54.8764 105.469 54.9877 105.458 55.099V55.1017C105.377 55.8941 105.251 56.6798 105.081 57.4539C105 57.8338 104.911 58.211 104.815 58.5882C104.804 58.6366 104.791 58.6851 104.778 58.7323V58.7336C104.495 59.8306 104.156 60.9085 103.764 61.9621C103.042 63.9017 102.149 65.7543 101.098 67.4918C101.023 67.6188 100.945 67.7458 100.866 67.8716V47.3611C100.944 47.3559 101.021 47.3559 101.098 47.3585C101.135 47.3585 101.173 47.3598 101.21 47.3624C101.537 47.3819 101.861 47.4528 102.171 47.5733C102.28 47.6139 102.385 47.6598 102.49 47.7108C103.756 48.3369 104.75 49.7174 105.182 51.2353C105.506 52.3722 105.571 53.568 105.486 54.7624Z" fill="#F2F2F2"/>
<path d="M102.49 47.7108C102.487 47.7237 102.483 47.736 102.477 47.7475C102.007 48.7783 101.547 49.8143 101.098 50.8555C101.021 51.0349 100.943 51.2157 100.866 51.3951V50.5045C100.943 50.3264 101.02 50.1482 101.098 49.9701C101.445 49.1764 101.798 48.3862 102.157 47.5995C102.161 47.5903 102.165 47.5815 102.171 47.5733C102.277 47.4004 102.542 47.5183 102.49 47.7108Z" fill="white"/>
<path d="M105.523 54.9733C105.502 55.0152 105.481 55.0571 105.458 55.099C105.117 55.7693 104.712 56.3948 104.249 56.9641C103.36 58.0527 102.289 58.9327 101.098 59.5534C101.022 59.5954 100.944 59.6347 100.866 59.6713V59.2457C100.944 59.2064 101.022 59.1658 101.098 59.1239C102.822 58.1958 104.254 56.6962 105.203 54.8253C105.216 54.7986 105.235 54.7755 105.257 54.7576C105.28 54.7397 105.305 54.7275 105.332 54.7216C105.359 54.7158 105.386 54.7165 105.413 54.7238C105.44 54.7311 105.464 54.7447 105.486 54.7638C105.501 54.7748 105.513 54.7889 105.523 54.8054C105.533 54.8219 105.54 54.8404 105.543 54.8598C105.546 54.8793 105.546 54.8993 105.543 54.9188C105.54 54.9383 105.533 54.9568 105.523 54.9733V54.9733Z" fill="white"/>
<path d="M101.098 31.3221V41.2761H100.866V41.17H23.2321V41.2761H23V31.3221C23.001 30.1762 23.4048 29.0775 24.1227 28.2672C24.8407 27.4569 25.8141 27.0011 26.8295 27H97.2688C98.2841 27.0011 99.2576 27.4569 99.9755 28.2672C100.693 29.0775 101.097 30.1762 101.098 31.3221V31.3221Z" fill="#902C8C"/>
<path d="M97.2688 27H26.8295C25.8141 27.0011 24.8407 27.4569 24.1227 28.2672C23.4048 29.0775 23.001 30.1762 23 31.3221V88.1646C23.001 89.3106 23.4048 90.4092 24.1227 91.2196C24.8407 92.0299 25.8141 92.4856 26.8295 92.4867H97.2688C98.2841 92.4856 99.2576 92.0299 99.9755 91.2196C100.693 90.4092 101.097 89.3106 101.098 88.1646V31.3221C101.097 30.1762 100.693 29.0775 99.9755 28.2672C99.2576 27.4569 98.2841 27.0011 97.2688 27V27ZM100.866 88.1646C100.865 89.241 100.486 90.2729 99.8112 91.0341C99.1368 91.7952 98.2225 92.2234 97.2688 92.2248H26.8295C25.8758 92.2234 24.9615 91.7952 24.2871 91.0341C23.6127 90.2729 23.2333 89.241 23.2321 88.1646V31.3221C23.2333 30.2457 23.6127 29.2138 24.2871 28.4527C24.9615 27.6915 25.8758 27.2633 26.8295 27.2619H97.2688C98.2225 27.2633 99.1368 27.6915 99.8112 28.4527C100.486 29.2138 100.865 30.2457 100.866 31.3221V88.1646Z" fill="#3F3D56"/>
<path d="M38.7821 36.7575C40.0639 36.7575 41.103 35.5847 41.103 34.1381C41.103 32.6914 40.0639 31.5186 38.7821 31.5186C37.5003 31.5186 36.4612 32.6914 36.4612 34.1381C36.4612 35.5847 37.5003 36.7575 38.7821 36.7575Z" fill="white"/>
<path d="M85.3161 36.7575C86.5979 36.7575 87.637 35.5847 87.637 34.1381C87.637 32.6914 86.5979 31.5186 85.3161 31.5186C84.0343 31.5186 82.9952 32.6914 82.9952 34.1381C82.9952 35.5847 84.0343 36.7575 85.3161 36.7575Z" fill="white"/>
<path d="M45.4877 63.3454H31.6811C31.0962 63.3446 30.5354 63.0821 30.1219 62.6153C29.7083 62.1484 29.4756 61.5155 29.4749 60.8554V53.4904C29.4756 52.8302 29.7083 52.1973 30.1219 51.7305C30.5354 51.2637 31.0962 51.0012 31.6811 51.0004H45.4877C46.0726 51.0012 46.6334 51.2637 47.047 51.7305C47.4606 52.1973 47.6932 52.8302 47.6939 53.4904V60.8554C47.6932 61.5155 47.4606 62.1484 47.047 62.6153C46.6334 63.0821 46.0726 63.3446 45.4877 63.3454V63.3454Z" fill="#902C8C"/>
<path d="M68.9751 63.3454H55.1685C54.5836 63.3446 54.0228 63.0821 53.6092 62.6153C53.1956 62.1484 52.9629 61.5155 52.9623 60.8554V53.4904C52.9629 52.8302 53.1956 52.1973 53.6092 51.7305C54.0228 51.2637 54.5836 51.0012 55.1685 51.0004H68.9751C69.56 51.0012 70.1207 51.2637 70.5343 51.7305C70.9479 52.1973 71.1806 52.8302 71.1812 53.4904V60.8554C71.1806 61.5155 70.9479 62.1484 70.5343 62.6153C70.1207 63.0821 69.56 63.3446 68.9751 63.3454V63.3454Z" fill="#902C8C"/>
<path d="M68.9751 82.3747H55.1685C54.5658 82.3739 53.9881 82.1034 53.562 81.6225C53.1358 81.1415 52.8961 80.4894 52.8954 79.8093V72.4442C52.8961 71.764 53.1358 71.1119 53.562 70.631C53.9881 70.15 54.5658 69.8795 55.1685 69.8787H68.9751C69.5777 69.8795 70.1555 70.15 70.5816 70.631C71.0077 71.1119 71.2474 71.764 71.2481 72.4442V79.8093C71.2474 80.4894 71.0077 81.1415 70.5816 81.6224C70.1555 82.1034 69.5777 82.3739 68.9751 82.3747V82.3747Z" fill="#F2F2F2"/>
<path d="M45.4425 82.3747H31.6359C31.0332 82.3739 30.4555 82.1034 30.0293 81.6224C29.6032 81.1415 29.3635 80.4894 29.3628 79.8093V72.4442C29.3635 71.764 29.6032 71.1119 30.0293 70.631C30.4555 70.15 31.0332 69.8795 31.6359 69.8787H45.4425C46.0451 69.8795 46.6228 70.15 47.049 70.631C47.4751 71.1119 47.7148 71.764 47.7155 72.4442V79.8093C47.7148 80.4894 47.4751 81.1415 47.049 81.6224C46.6228 82.1034 46.0451 82.3739 45.4425 82.3747V82.3747Z" fill="#F2F2F2"/>
<path d="M92.4624 82.3747H78.6558C78.0532 82.3739 77.4754 82.1034 77.0493 81.6224C76.6232 81.1415 76.3835 80.4894 76.3828 79.8093V72.4442C76.3835 71.764 76.6232 71.1119 77.0493 70.631C77.4754 70.15 78.0532 69.8795 78.6558 69.8787H92.4624C93.065 69.8795 93.6428 70.15 94.0689 70.631C94.4951 71.1119 94.7348 71.764 94.7354 72.4442V79.8093C94.7348 80.4894 94.4951 81.1415 94.0689 81.6224C93.6428 82.1034 93.065 82.3739 92.4624 82.3747V82.3747Z" fill="#F2F2F2"/>
<path d="M92.4624 63.3602H78.6558C78.0532 63.3594 77.4754 63.0889 77.0493 62.6079C76.6232 62.127 76.3835 61.4749 76.3828 60.7947V53.4297C76.3835 52.7495 76.6232 52.0974 77.0493 51.6165C77.4754 51.1355 78.0532 50.865 78.6558 50.8642H92.4624C93.065 50.865 93.6428 51.1355 94.0689 51.6165C94.4951 52.0974 94.7348 52.7495 94.7354 53.4297V60.7947C94.7348 61.4749 94.4951 62.127 94.0689 62.6079C93.6428 63.0889 93.065 63.3594 92.4624 63.3602Z" fill="#F2F2F2"/>
<path d="M38.5844 61.3983C40.6521 61.3983 42.3283 59.5065 42.3283 57.1729C42.3283 54.8393 40.6521 52.9475 38.5844 52.9475C36.5168 52.9475 34.8406 54.8393 34.8406 57.1729C34.8406 59.5065 36.5168 61.3983 38.5844 61.3983Z" fill="white"/>
<path d="M38.2133 58.7848C38.1291 58.785 38.0471 58.7542 37.9797 58.6972L37.9755 58.6937L37.0957 57.9334C37.0549 57.8982 37.0207 57.8542 36.9949 57.8041C36.9692 57.7539 36.9524 57.6985 36.9457 57.6411C36.9389 57.5836 36.9422 57.5252 36.9555 57.4692C36.9687 57.4132 36.9916 57.3606 37.0229 57.3146C37.0541 57.2686 37.0931 57.23 37.1375 57.201C37.182 57.172 37.2311 57.1531 37.282 57.1456C37.333 57.138 37.3847 57.1418 37.4343 57.1568C37.4839 57.1718 37.5304 57.1977 37.5712 57.233L38.1411 57.7262L39.4878 55.7439C39.519 55.698 39.558 55.6594 39.6024 55.6304C39.6469 55.6014 39.6959 55.5826 39.7468 55.575C39.7977 55.5674 39.8494 55.5712 39.899 55.5862C39.9486 55.6012 39.9951 55.627 40.0358 55.6623L40.0275 55.6751L40.0361 55.6625C40.1182 55.7338 40.172 55.8389 40.1855 55.9549C40.1991 56.0708 40.1714 56.1881 40.1084 56.281L38.5243 58.6126C38.4877 58.6664 38.4406 58.7099 38.3866 58.7397C38.3327 58.7696 38.2734 58.785 38.2133 58.7848V58.7848Z" fill="#902C8C"/>
<path d="M62.1386 61.3377C64.2063 61.3377 65.8825 59.4459 65.8825 57.1122C65.8825 54.7786 64.2063 52.8868 62.1386 52.8868C60.071 52.8868 58.3948 54.7786 58.3948 57.1122C58.3948 59.4459 60.071 61.3377 62.1386 61.3377Z" fill="white"/>
<path d="M61.7675 58.7241C61.6833 58.7243 61.6013 58.6936 61.5339 58.6365L61.5297 58.633L60.6499 57.8727C60.5676 57.8016 60.5138 57.6964 60.5001 57.5804C60.4865 57.4644 60.5143 57.3471 60.5774 57.2542C60.6404 57.1613 60.7336 57.1005 60.8364 57.0852C60.9391 57.0698 61.0431 57.1012 61.1254 57.1723L61.6953 57.6655L63.042 55.6833C63.0732 55.6373 63.1122 55.5987 63.1566 55.5697C63.2011 55.5407 63.2501 55.5219 63.301 55.5143C63.3519 55.5067 63.4036 55.5105 63.4532 55.5255C63.5028 55.5405 63.5493 55.5664 63.59 55.6016L63.5817 55.6144L63.5903 55.6018C63.6724 55.6731 63.7262 55.7782 63.7397 55.8942C63.7533 56.0101 63.7256 56.1274 63.6626 56.2203L62.0785 58.552C62.0419 58.6057 61.9948 58.6492 61.9408 58.679C61.8869 58.7089 61.8276 58.7243 61.7675 58.7241V58.7241Z" fill="#902C8C"/>
<path d="M87.4412 77.0515C87.5642 76.8997 87.6562 76.7193 87.7107 76.523C87.7653 76.3268 87.781 76.1194 87.7569 75.9155C87.7327 75.7116 87.6693 75.5162 87.571 75.343C87.4727 75.1698 87.3419 75.023 87.1879 74.913L85.0978 62.317L82.5559 63.3808L85.4097 75.4278C85.2631 75.7321 85.2205 76.0864 85.2899 76.4237C85.3594 76.7611 85.536 77.0579 85.7865 77.2581C86.0369 77.4582 86.3436 77.5477 86.6486 77.5096C86.9536 77.4716 87.2356 77.3086 87.4412 77.0515V77.0515Z" fill="#A0616A"/>
<path d="M67.1583 57.8312C67.1646 57.9094 67.1655 57.9881 67.1608 58.0664L72.1032 62.3597L73.5047 61.7101L74.6498 63.9693L72.2676 65.3914C72.0752 65.5063 71.8549 65.5476 71.6399 65.5092C71.4248 65.4707 71.2267 65.3546 71.0751 65.1782L66.1349 59.4299C65.8734 59.4965 65.6002 59.4716 65.3515 59.3586C65.1028 59.2456 64.8905 59.0498 64.7428 58.7973C64.5951 58.5448 64.5191 58.2476 64.5247 57.9451C64.5304 57.6426 64.6175 57.3492 64.7745 57.104C64.9314 56.8587 65.1509 56.6732 65.4035 56.5722C65.6562 56.4711 65.9302 56.4593 66.1889 56.5382C66.4477 56.6172 66.6791 56.7832 66.8522 57.0141C67.0254 57.2451 67.1321 57.5301 67.1583 57.8312H67.1583Z" fill="#A0616A"/>
<path d="M78.7048 99.4085H77.2822L76.6053 94.5248L78.7052 94.5249L78.7048 99.4085Z" fill="#A0616A"/>
<path d="M79.0677 100.965L74.4804 100.965V100.899C74.4804 100.635 74.5266 100.373 74.6163 100.128C74.706 99.8837 74.8375 99.6616 75.0033 99.4744C75.1691 99.2873 75.366 99.1389 75.5826 99.0376C75.7992 98.9363 76.0314 98.8842 76.2659 98.8842H76.266L79.0678 98.8843L79.0677 100.965Z" fill="#2F2E41"/>
<path d="M84.0429 99.4085H82.6203L81.9434 94.5248L84.0433 94.5249L84.0429 99.4085Z" fill="#A0616A"/>
<path d="M84.4058 100.965L79.8185 100.965V100.899C79.8184 100.635 79.8646 100.373 79.9544 100.128C80.0441 99.8837 80.1756 99.6616 80.3414 99.4744C80.5072 99.2873 80.704 99.1389 80.9207 99.0376C81.1373 98.9363 81.3695 98.8842 81.604 98.8842H81.6041L84.4059 98.8843L84.4058 100.965Z" fill="#2F2E41"/>
<path d="M76.9868 98.4433C76.8569 98.4434 76.7317 98.3888 76.6356 98.2902C76.5395 98.1915 76.4796 98.0559 76.4675 97.91L75.2277 79.0905L75.2863 79.0851L83.8181 78.2936L83.8203 78.362L84.4986 97.8575C84.5012 97.9367 84.4896 98.0157 84.4646 98.0897C84.4396 98.1638 84.4015 98.2314 84.3528 98.2884C84.3041 98.3455 84.2457 98.3909 84.1811 98.4219C84.1164 98.4529 84.0469 98.4689 83.9767 98.4689H82.3039C82.179 98.4696 82.058 98.4194 81.9633 98.3276C81.8685 98.2359 81.8062 98.1086 81.7877 97.9692L79.516 82.2203C79.5138 82.204 79.5062 82.1893 79.4948 82.179C79.4834 82.1688 79.469 82.1637 79.4545 82.1649C79.4399 82.1661 79.4263 82.1734 79.4164 82.1854C79.4064 82.1975 79.4008 82.2133 79.4007 82.2297L79.2976 97.7794C79.2966 97.9295 79.2448 98.0736 79.1529 98.1822C79.0609 98.2908 78.9358 98.3557 78.8029 98.3638L77.0148 98.4424C77.0054 98.4431 76.996 98.4433 76.9868 98.4433Z" fill="#2F2E41"/>
<path d="M78.443 55.3067C80.0171 55.3067 81.2932 53.8665 81.2932 52.0898C81.2932 50.3132 80.0171 48.873 78.443 48.873C76.8689 48.873 75.5928 50.3132 75.5928 52.0898C75.5928 53.8665 76.8689 55.3067 78.443 55.3067Z" fill="#A0616A"/>
<path d="M78.9948 80.2907C77.749 80.2865 76.5093 80.0953 75.3082 79.722C75.1926 79.6841 75.0922 79.6023 75.0238 79.4905C74.9554 79.3787 74.9232 79.2437 74.9327 79.1082C75.3164 72.5997 75.4066 67.5489 74.5998 64.0543C74.2559 62.5648 74.412 60.9962 75.0281 59.7505C75.9553 57.8759 77.6595 56.7349 79.4773 56.7743C79.5642 56.7762 79.6519 56.7797 79.7405 56.7848C82.4992 56.9451 84.6489 59.7619 84.5325 63.0639L83.9776 78.8028C83.9756 78.9176 83.9435 79.0292 83.8853 79.1235C83.8272 79.2177 83.7456 79.2904 83.6509 79.3324C82.1623 79.9645 80.5852 80.2891 78.9948 80.2907Z" fill="#3F3D56"/>
<path d="M75.0688 65.2627L72.9339 62.31C72.8731 62.2259 72.8291 62.1281 72.8049 62.0232C72.7807 61.9183 72.7768 61.8087 72.7934 61.7019C72.8101 61.5951 72.847 61.4936 72.9015 61.4044C72.9561 61.3151 73.0271 61.2402 73.1096 61.1847L76.0016 59.2397C76.3842 58.8913 76.8736 58.7283 77.3625 58.7866C77.8514 58.8448 78.2999 59.1195 78.6096 59.5504C78.9193 59.9813 79.065 60.5333 79.0146 61.0852C78.9643 61.6372 78.7221 62.1441 78.3411 62.4947L76.0809 65.294C76.0161 65.3742 75.9368 65.4376 75.8484 65.48C75.76 65.5225 75.6645 65.5429 75.5685 65.5399C75.4724 65.5369 75.3781 65.5106 75.2919 65.4628C75.2057 65.415 75.1296 65.3467 75.0688 65.2627V65.2627Z" fill="#3F3D56"/>
<path d="M81.7849 64.8922C81.6972 64.8479 81.619 64.7828 81.5557 64.7013C81.4923 64.6198 81.4453 64.5238 81.4178 64.4199L80.4567 60.7912C80.248 60.2888 80.2245 59.7134 80.3912 59.1914C80.5579 58.6693 80.9012 58.2432 81.3459 58.0065C81.7906 57.7698 82.3003 57.7418 82.7632 57.9286C83.2262 58.1155 83.6046 58.5019 83.8154 59.0032L85.674 62.1713C85.7271 62.2617 85.7622 62.3639 85.7771 62.4711C85.7919 62.5782 85.7862 62.6877 85.7602 62.7921C85.7342 62.8965 85.6885 62.9933 85.6264 63.076C85.5642 63.1587 85.487 63.2253 85.4 63.2713L82.3417 64.887C82.2547 64.933 82.1599 64.9573 82.0638 64.9582C81.9677 64.9591 81.8726 64.9366 81.7849 64.8922V64.8922Z" fill="#3F3D56"/>
<path d="M79.8515 54.7293L77.7388 54.1836C77.5208 54.1273 77.259 54.0199 77.2288 53.7699C77.1882 53.4339 77.6166 53.1998 77.577 52.8637C77.5388 52.5381 77.1485 52.4962 76.8703 52.4001C76.6111 52.2975 76.3975 52.0851 76.2747 51.8079C76.1518 51.5307 76.1293 51.2104 76.212 50.9148C75.911 51.3936 75.2232 51.4347 74.8327 51.0467C74.4422 50.6588 74.3673 49.9549 74.6018 49.4308C74.7285 49.1734 74.9072 48.9533 75.1234 48.7885C75.3397 48.6237 75.5873 48.5189 75.8462 48.4825C76.3668 48.4159 76.8932 48.5266 77.3575 48.8005C77.3884 48.4294 77.799 48.2789 78.1292 48.2756C78.8152 48.2846 79.4817 48.5348 80.0358 48.9913C80.59 49.4478 81.0043 50.0879 81.221 50.8226C81.6262 52.2963 81.3552 53.9117 80.2214 54.774L79.8515 54.7293Z" fill="#2F2E41"/>
<path d="M101.132 101H56.9185C56.8877 101 56.8582 100.986 56.8364 100.962C56.8147 100.937 56.8024 100.904 56.8024 100.869C56.8024 100.834 56.8147 100.801 56.8364 100.776C56.8582 100.752 56.8877 100.738 56.9185 100.738H101.132C101.162 100.738 101.192 100.752 101.214 100.776C101.235 100.801 101.248 100.834 101.248 100.869C101.248 100.904 101.235 100.937 101.214 100.962C101.192 100.986 101.162 101 101.132 101Z" fill="#3F3D56"/>
</g>
</g>
<defs>
<filter id="filter0_d_59_835" x="0" y="0" width="145" height="136" filterUnits="userSpaceOnUse" color-interpolation-filters="sRGB">
<feFlood flood-opacity="0" result="BackgroundImageFix"/>
<feColorMatrix in="SourceAlpha" type="matrix" values="0 0 0 0 0 0 0 0 0 0 0 0 0 0 0 0 0 0 127 0" result="hardAlpha"/>
<feOffset dy="4"/>
<feGaussianBlur stdDeviation="2"/>
<feComposite in2="hardAlpha" operator="out"/>
<feColorMatrix type="matrix" values="0 0 0 0 0 0 0 0 0 0 0 0 0 0 0 0 0 0 0.25 0"/>
<feBlend mode="normal" in2="BackgroundImageFix" result="effect1_dropShadow_59_835"/>
<feBlend mode="normal" in="SourceGraphic" in2="effect1_dropShadow_59_835" result="shape"/>
</filter>
<clipPath id="clip0_59_835">
<rect width="99" height="74" fill="white" transform="translate(23 27)"/>
</clipPath>
</defs>
</svg>
