<svg width="145" height="136" viewBox="0 0 145 136" fill="none" xmlns="http://www.w3.org/2000/svg">
<g filter="url(#filter0_d_59_833)">
<rect x="4.5" y="0.5" width="136" height="127" rx="12.5" fill="#FAFAFA" stroke="#EFEFEF"/>
<g clip-path="url(#clip0_59_833)">
<path d="M106.006 72.0872C106.076 72.0616 106.147 72.0428 106.22 72.031L109.114 64.822L108.231 63.1982L110.056 61.2433L112.35 64.6844L107.677 73.0196C107.792 73.3348 107.826 73.6855 107.775 74.0249C107.723 74.3644 107.588 74.6765 107.389 74.9198C107.189 75.1632 106.933 75.3262 106.656 75.3872C106.379 75.4481 106.093 75.4042 105.836 75.2612C105.58 75.1182 105.365 74.8829 105.22 74.5866C105.076 74.2903 105.008 73.947 105.027 73.6025C105.045 73.2579 105.148 72.9284 105.323 72.6577C105.498 72.387 105.736 72.188 106.006 72.0872V72.0872Z" fill="#A0616A"/>
<path d="M110.947 62.2392C110.907 62.2902 110.862 62.3339 110.812 62.369L107.851 64.4733C107.78 64.5239 107.701 64.5559 107.619 64.5671C107.537 64.5784 107.455 64.5687 107.376 64.5388C107.297 64.5088 107.225 64.4592 107.163 64.393C107.101 64.3269 107.05 64.2457 107.015 64.1545L105.575 60.4246C105.513 60.2676 105.5 60.0889 105.538 59.921C105.575 59.7531 105.66 59.6072 105.778 59.51L107.614 57.9793C107.728 57.8838 107.867 57.8404 108.005 57.8564C108.143 57.8725 108.272 57.9471 108.37 58.0674L110.935 61.2236C111.045 61.358 111.107 61.5391 111.109 61.7286C111.111 61.9182 111.053 62.1013 110.947 62.2392H110.947Z" fill="#CCCCCC"/>
<path d="M115.105 103.547L113.541 104.069L111.156 96.9247L113.464 96.155L115.105 103.547Z" fill="#A0616A"/>
<path d="M112.303 103.894L115.319 102.888L115.835 105.215L110.921 106.854C110.853 106.549 110.835 106.23 110.868 105.915C110.9 105.601 110.983 105.298 111.112 105.023C111.24 104.748 111.411 104.507 111.616 104.313C111.82 104.119 112.054 103.977 112.303 103.894V103.894Z" fill="#2F2E41"/>
<path d="M101.738 105.01L100.118 105.01L99.3466 97.3485L101.738 97.3487L101.738 105.01Z" fill="#A0616A"/>
<path d="M98.96 104.442H102.085V106.854H96.9922C96.9922 106.537 97.0431 106.224 97.142 105.931C97.2409 105.638 97.3859 105.373 97.5686 105.149C97.7513 104.925 97.9682 104.747 98.2069 104.626C98.4457 104.505 98.7015 104.442 98.96 104.442Z" fill="#2F2E41"/>
<path d="M103.445 55.4361C105.238 55.4361 106.692 53.6546 106.692 51.457C106.692 49.2593 105.238 47.4778 103.445 47.4778C101.652 47.4778 100.199 49.2593 100.199 51.457C100.199 53.6546 101.652 55.4361 103.445 55.4361Z" fill="#A0616A"/>
<path d="M101.639 99.5475H99.4242C99.2729 99.5471 99.1272 99.4763 99.0169 99.3493C98.9066 99.2222 98.8398 99.0485 98.83 98.8634C98.1702 86.0059 98.5561 76.783 100.045 69.8385C100.051 69.8081 100.059 69.7783 100.069 69.7491L100.187 69.3857C100.231 69.2501 100.307 69.1339 100.406 69.0521C100.504 68.9704 100.621 68.9269 100.74 68.9274H105.293C105.379 68.9273 105.464 68.95 105.542 68.994C105.62 69.0379 105.689 69.102 105.745 69.1819L106.364 70.0665C106.376 70.0838 106.387 70.1013 106.398 70.1198C109.187 74.8871 111.686 84.2074 114.581 96.7348C114.624 96.9168 114.607 97.1121 114.534 97.2791C114.461 97.446 114.338 97.5714 114.19 97.6285L111.81 98.562C111.674 98.6147 111.526 98.6056 111.395 98.5362C111.263 98.4669 111.156 98.342 111.093 98.1842L104.918 82.4841C104.874 82.3744 104.804 82.2846 104.715 82.2281C104.627 82.1716 104.527 82.1514 104.429 82.1704C104.331 82.1894 104.24 82.2466 104.17 82.3337C104.101 82.4207 104.056 82.5329 104.043 82.6536L102.228 98.9172C102.208 99.0916 102.138 99.2513 102.029 99.3671C101.921 99.4828 101.782 99.5469 101.639 99.5475V99.5475Z" fill="#2F2E41"/>
<path d="M106.114 70.1312C106.108 70.1312 106.101 70.1311 106.095 70.1309L100.564 69.9168C100.422 69.912 100.286 69.8446 100.181 69.727C100.076 69.6094 100.008 69.4494 99.9917 69.2762C99.2905 62.3192 101.214 60.4555 102.073 59.9772C102.145 59.9375 102.207 59.8757 102.254 59.7978C102.3 59.72 102.33 59.6287 102.339 59.5328L102.413 58.8036C102.426 58.6748 102.466 58.5525 102.531 58.4495C103.878 56.3101 105.718 55.625 106.695 55.4072C106.774 55.3897 106.855 55.3922 106.934 55.4144C107.012 55.4367 107.086 55.4782 107.151 55.5366C107.216 55.5949 107.27 55.6688 107.311 55.7538C107.352 55.8387 107.379 55.933 107.389 56.0309L107.5 57.0779C107.512 57.1778 107.544 57.2723 107.594 57.352C110.404 61.8546 107.274 68.5027 106.618 69.7896C106.564 69.8941 106.49 69.9803 106.402 70.04C106.314 70.0997 106.215 70.1311 106.114 70.1312Z" fill="#CCCCCC"/>
<path d="M109.995 51.9049C109.271 50.655 108.402 49.5406 107.417 48.5966C106.598 47.8122 105.686 47.1421 104.68 46.8215C103.673 46.501 102.562 46.5556 101.644 47.1535C100.726 47.7515 99.7773 48.9396 99.7715 50.2138C99.7696 50.6232 99.8546 51.177 100.183 51.1062L100.279 51.1216C101.072 50.9252 101.865 50.7288 102.659 50.5324C102.997 51.9697 103.335 53.4071 103.672 54.8444C103.744 55.1474 103.839 55.4861 104.074 55.6153C104.295 55.737 104.55 55.6223 104.774 55.5079C104.811 55.4891 105.127 54.6199 105.127 54.6199C105.134 54.5927 105.148 54.5686 105.166 54.5501C105.184 54.5316 105.206 54.5193 105.229 54.5146C105.252 54.5098 105.276 54.5127 105.298 54.523C105.32 54.5333 105.34 54.5506 105.354 54.5731L105.542 54.8606C105.578 54.9156 105.627 54.9547 105.683 54.9721C105.738 54.9896 105.797 54.9843 105.85 54.9572C107.144 54.2952 108.438 53.6332 109.732 52.9712C109.91 52.8797 110.11 52.7602 110.162 52.5314C110.212 52.3121 110.102 52.0905 109.995 51.9049Z" fill="#2F2E41"/>
<path d="M124.868 107H85.0824C85.0474 107 85.0138 106.983 84.989 106.953C84.9642 106.922 84.9503 106.881 84.9503 106.838C84.9503 106.795 84.9642 106.754 84.989 106.723C85.0138 106.693 85.0474 106.676 85.0824 106.676H124.868C124.903 106.676 124.936 106.693 124.961 106.723C124.986 106.754 125 106.795 125 106.838C125 106.881 124.986 106.922 124.961 106.953C124.936 106.983 124.903 107 124.868 107Z" fill="#3F3D56"/>
<path d="M103.299 81.7528C103.209 81.7524 103.121 81.7169 103.049 81.6515L102.447 81.1157C102.397 81.071 102.337 81.0469 102.275 81.0469C102.214 81.0469 102.153 81.071 102.103 81.1157L101.502 81.6515C101.429 81.7161 101.342 81.7509 101.252 81.7509C101.162 81.7509 101.075 81.7161 101.002 81.6515C100.93 81.5869 100.876 81.4958 100.848 81.3913C100.82 81.2867 100.82 81.1741 100.848 81.0695L101.078 80.2026C101.097 80.1306 101.097 80.0529 101.078 79.9809C101.059 79.9088 101.022 79.8461 100.972 79.8017L100.37 79.2658C100.297 79.2012 100.243 79.1101 100.216 79.0055C100.188 78.9009 100.188 78.7883 100.216 78.6837C100.243 78.5792 100.297 78.4881 100.37 78.4235C100.443 78.3588 100.53 78.324 100.62 78.324H101.363C101.425 78.3242 101.485 78.3002 101.535 78.2557C101.585 78.2112 101.623 78.1484 101.642 78.0763L101.871 77.2093C101.899 77.1048 101.953 77.0136 102.026 76.949C102.098 76.8844 102.186 76.8495 102.275 76.8495C102.365 76.8495 102.452 76.8844 102.525 76.949C102.598 77.0136 102.652 77.1048 102.679 77.2093L102.909 78.0763C102.928 78.1484 102.965 78.2112 103.015 78.2557C103.065 78.3002 103.126 78.3242 103.187 78.324H103.931C104.021 78.324 104.108 78.3588 104.181 78.4235C104.253 78.4881 104.307 78.5792 104.335 78.6837C104.363 78.7883 104.363 78.9009 104.335 79.0055C104.307 79.1101 104.253 79.2012 104.181 79.2658L103.579 79.8016C103.529 79.846 103.492 79.9088 103.473 79.9809C103.454 80.0529 103.454 80.1306 103.473 80.2026L103.703 81.0695C103.731 81.174 103.732 81.287 103.704 81.3918C103.676 81.4966 103.622 81.5877 103.548 81.6515C103.476 81.7169 103.389 81.7524 103.299 81.7528V81.7528Z" fill="#902C8C"/>
<path d="M105.598 80.0196C105.768 79.8735 105.91 79.6835 106.013 79.463C106.117 79.2425 106.18 78.9968 106.197 78.7433C106.215 78.4898 106.187 78.2346 106.116 77.9957C106.044 77.7568 105.931 77.5401 105.784 77.3606L106.811 62.1524L103.752 62.6683L103.694 77.4444C103.465 77.7675 103.34 78.1825 103.343 78.6109C103.347 79.0392 103.478 79.4512 103.713 79.7686C103.948 80.086 104.269 80.2869 104.617 80.3332C104.964 80.3794 105.313 80.2679 105.598 80.0196V80.0196Z" fill="#A0616A"/>
<path d="M107.011 64.3423C106.954 64.3423 106.897 64.3322 106.842 64.3123L103.558 63.1284C103.479 63.0999 103.406 63.0517 103.343 62.9868C103.28 62.9218 103.229 62.8416 103.192 62.7511C103.156 62.6607 103.135 62.5619 103.132 62.4612C103.128 62.3604 103.141 62.2598 103.171 62.1658L104.386 58.3174C104.437 58.1548 104.534 58.0201 104.659 57.9376C104.784 57.8552 104.929 57.8306 105.068 57.8684L107.237 58.4465C107.373 58.4826 107.493 58.5756 107.579 58.7093C107.664 58.8431 107.709 59.0092 107.705 59.179L107.604 63.6331C107.6 63.8226 107.536 64.0026 107.425 64.135C107.314 64.2673 107.166 64.3417 107.011 64.3423H107.011Z" fill="#CCCCCC"/>
<path d="M76.1006 83.3464H19.9252C19.6799 83.346 19.4448 83.2264 19.2713 83.0138C19.0978 82.8012 19.0003 82.513 19 82.2123V61.6369C19.0003 61.3362 19.0978 61.0479 19.2713 60.8353C19.4448 60.6227 19.6799 60.5031 19.9252 60.5028H76.1006C76.3459 60.5031 76.5811 60.6227 76.7546 60.8353C76.928 61.0479 77.0256 61.3362 77.0259 61.6369V82.2123C77.0256 82.513 76.928 82.8012 76.7546 83.0138C76.5811 83.2264 76.3459 83.346 76.1006 83.3464V83.3464ZM19.9252 60.8268C19.75 60.8271 19.582 60.9125 19.4581 61.0643C19.3343 61.2162 19.2646 61.4221 19.2644 61.6369V82.2123C19.2646 82.4271 19.3343 82.6329 19.4581 82.7848C19.582 82.9367 19.75 83.0221 19.9252 83.0223H76.1006C76.2759 83.0221 76.4438 82.9367 76.5677 82.7848C76.6916 82.633 76.7613 82.4271 76.7615 82.2123V61.6369C76.7613 61.4221 76.6916 61.2162 76.5677 61.0643C76.4438 60.9125 76.2759 60.8271 76.1006 60.8268H19.9252Z" fill="#3F3D56"/>
<path d="M44.507 92.0099C44.3968 92.0094 44.2897 91.9659 44.2011 91.8858L43.464 91.2294C43.4029 91.1747 43.3291 91.1452 43.2534 91.1452C43.1776 91.1452 43.1039 91.1747 43.0427 91.2294L42.3056 91.8858C42.2168 91.965 42.1097 92.0076 41.9998 92.0076C41.8899 92.0076 41.7829 91.965 41.694 91.8858C41.6051 91.8067 41.5389 91.6951 41.505 91.567C41.471 91.4389 41.471 91.3009 41.5049 91.1728L41.7865 90.1108C41.81 90.0226 41.8101 89.9275 41.7867 89.8392C41.7633 89.7509 41.7176 89.674 41.6563 89.6196L40.9192 88.9632C40.8303 88.884 40.7641 88.7724 40.7302 88.6443C40.6962 88.5162 40.6962 88.3782 40.7302 88.2502C40.7641 88.1221 40.8303 88.0104 40.9192 87.9313C41.0081 87.8521 41.1151 87.8095 41.225 87.8095H42.1361C42.2118 87.8097 42.2856 87.7803 42.3469 87.7258C42.4082 87.6713 42.4537 87.5943 42.477 87.506L42.7585 86.4439C42.7924 86.3158 42.8586 86.2042 42.9475 86.125C43.0364 86.0458 43.1435 86.0032 43.2534 86.0032C43.3633 86.0032 43.4703 86.0458 43.5592 86.125C43.6481 86.2042 43.7143 86.3158 43.7482 86.4439L44.0298 87.506C44.053 87.5943 44.0986 87.6713 44.1598 87.7258C44.2211 87.7803 44.2949 87.8097 44.3706 87.8095H45.2817C45.3916 87.8095 45.4986 87.8521 45.5875 87.9313C45.6764 88.0105 45.7426 88.1221 45.7765 88.2502C45.8105 88.3783 45.8105 88.5162 45.7765 88.6443C45.7426 88.7724 45.6764 88.884 45.5875 88.9632L44.8504 89.6196C44.7891 89.674 44.7434 89.7509 44.72 89.8392C44.6967 89.9275 44.6967 90.0226 44.7203 90.1108L45.0018 91.1728C45.037 91.3008 45.0376 91.4393 45.0036 91.5677C44.9695 91.6961 44.9026 91.8077 44.8128 91.8858C44.7242 91.9659 44.6171 92.0094 44.507 92.0099V92.0099Z" fill="#902C8C"/>
<path d="M51.9761 92.0099C51.866 92.0094 51.7589 91.9659 51.6702 91.8858L50.9332 91.2294C50.872 91.1747 50.7982 91.1452 50.7225 91.1452C50.6468 91.1452 50.573 91.1747 50.5119 91.2294L49.7748 91.8858C49.6859 91.965 49.5788 92.0076 49.469 92.0076C49.3591 92.0076 49.252 91.965 49.1631 91.8858C49.0742 91.8067 49.0081 91.6951 48.9741 91.567C48.9401 91.4389 48.9401 91.3009 48.9741 91.1728L49.2556 90.1108C49.2791 90.0226 49.2792 89.9275 49.2558 89.8392C49.2324 89.7509 49.1868 89.674 49.1254 89.6196L48.3883 88.9632C48.2995 88.884 48.2333 88.7724 48.1993 88.6443C48.1654 88.5162 48.1654 88.3782 48.1994 88.2502C48.2333 88.1221 48.2995 88.0105 48.3884 87.9313C48.4773 87.8521 48.5843 87.8095 48.6942 87.8095H49.6053C49.681 87.8097 49.7548 87.7803 49.816 87.7258C49.8773 87.6713 49.9228 87.5943 49.9461 87.506L50.2277 86.4439C50.2616 86.3158 50.3278 86.2042 50.4167 86.125C50.5056 86.0458 50.6126 86.0032 50.7225 86.0032C50.8324 86.0032 50.9395 86.0458 51.0284 86.125C51.1173 86.2042 51.1834 86.3158 51.2174 86.4439L51.4989 87.506C51.5222 87.5943 51.5677 87.6713 51.629 87.7258C51.6902 87.7803 51.7641 87.8097 51.8398 87.8095H52.7508C52.8607 87.8095 52.9678 87.8521 53.0567 87.9313C53.1456 88.0105 53.2117 88.1221 53.2457 88.2502C53.2796 88.3782 53.2796 88.5162 53.2457 88.6443C53.2117 88.7724 53.1456 88.884 53.0567 88.9632L52.3196 89.6196C52.2583 89.674 52.2126 89.7509 52.1892 89.8392C52.1658 89.9275 52.1659 90.0226 52.1894 90.1108L52.4709 91.1728C52.5061 91.3008 52.5068 91.4393 52.4727 91.5677C52.4387 91.6961 52.3717 91.8077 52.2819 91.8858C52.1933 91.9659 52.0862 92.0094 51.9761 92.0099V92.0099Z" fill="#902C8C"/>
<path d="M59.4452 92.0099C59.3351 92.0094 59.228 91.9659 59.1394 91.8858L58.4023 91.2294C58.3411 91.1748 58.2673 91.1454 58.1916 91.1454C58.1159 91.1454 58.0422 91.1748 57.981 91.2294L57.2439 91.8858C57.155 91.965 57.048 92.0076 56.9381 92.0076C56.8282 92.0076 56.7211 91.965 56.6322 91.8858C56.5434 91.8067 56.4772 91.6951 56.4432 91.567C56.4093 91.4389 56.4093 91.3009 56.4432 91.1728L56.7247 90.1108C56.7483 90.0226 56.7483 89.9275 56.7249 89.8392C56.7015 89.7509 56.6559 89.674 56.5945 89.6196L55.8575 88.9632C55.7686 88.884 55.7024 88.7724 55.6685 88.6443C55.6345 88.5162 55.6345 88.3782 55.6685 88.2502C55.7024 88.1221 55.7686 88.0105 55.8575 87.9313C55.9464 87.8521 56.0534 87.8095 56.1633 87.8095H57.0744C57.1501 87.8097 57.2239 87.7803 57.2852 87.7258C57.3464 87.6713 57.392 87.5943 57.4152 87.506L57.6968 86.4439C57.7307 86.3158 57.7969 86.2042 57.8858 86.125C57.9747 86.0458 58.0817 86.0032 58.1916 86.0032C58.3015 86.0032 58.4086 86.0458 58.4975 86.125C58.5864 86.2042 58.6526 86.3158 58.6865 86.4439L58.968 87.506C58.9913 87.5943 59.0369 87.6713 59.0981 87.7258C59.1594 87.7803 59.2332 87.8097 59.3089 87.8095H60.22C60.3298 87.8095 60.4369 87.8521 60.5258 87.9313C60.6147 88.0105 60.6808 88.1221 60.7148 88.2502C60.7488 88.3782 60.7488 88.5162 60.7148 88.6443C60.6809 88.7724 60.6147 88.884 60.5258 88.9632L59.7887 89.6196C59.7274 89.674 59.6817 89.7509 59.6583 89.8392C59.6349 89.9275 59.635 90.0226 59.6586 90.1108L59.9401 91.1728C59.9753 91.3008 59.9759 91.4392 59.9418 91.5677C59.9078 91.6961 59.8409 91.8076 59.7511 91.8858C59.6624 91.9659 59.5553 92.0094 59.4452 92.0099V92.0099Z" fill="#902C8C"/>
<path d="M66.9144 92.01C66.8043 92.0094 66.6971 91.9659 66.6085 91.8858L65.8714 91.2294C65.8103 91.1747 65.7365 91.1452 65.6608 91.1452C65.5851 91.1452 65.5113 91.1747 65.4501 91.2294L64.7131 91.8858C64.6242 91.965 64.5171 92.0076 64.4072 92.0076C64.2974 92.0076 64.1903 91.965 64.1014 91.8859C64.0125 91.8067 63.9463 91.6951 63.9124 91.567C63.8784 91.4389 63.8784 91.3009 63.9123 91.1729L64.1939 90.1108C64.2174 90.0226 64.2175 89.9275 64.1941 89.8392C64.1707 89.7509 64.125 89.6741 64.0637 89.6197L63.3266 88.9632C63.2377 88.884 63.1715 88.7724 63.1376 88.6443C63.1036 88.5162 63.1036 88.3783 63.1376 88.2502C63.1716 88.1221 63.2377 88.0105 63.3266 87.9313C63.4155 87.8521 63.5226 87.8095 63.6324 87.8095H64.5435C64.6192 87.8097 64.693 87.7804 64.7543 87.7258C64.8156 87.6713 64.8611 87.5943 64.8844 87.506L65.1659 86.4439C65.1998 86.3158 65.266 86.2042 65.3549 86.125C65.4438 86.0458 65.5509 86.0032 65.6608 86.0032C65.7706 86.0032 65.8777 86.0458 65.9666 86.125C66.0555 86.2042 66.1217 86.3158 66.1556 86.4439L66.4372 87.506C66.4604 87.5943 66.506 87.6713 66.5672 87.7258C66.6285 87.7804 66.7023 87.8097 66.778 87.8095H67.6891C67.799 87.8095 67.906 87.8521 67.9949 87.9313C68.0838 88.0105 68.15 88.1221 68.1839 88.2502C68.2179 88.3783 68.2179 88.5162 68.1839 88.6443C68.15 88.7724 68.0838 88.884 67.9949 88.9632L67.2579 89.6196C67.1965 89.674 67.1509 89.7509 67.1275 89.8392C67.1041 89.9275 67.1041 90.0226 67.1277 90.1108L67.4092 91.1729C67.4444 91.3008 67.445 91.4393 67.411 91.5677C67.3769 91.6961 67.31 91.8077 67.2202 91.8858C67.1316 91.9659 67.0245 92.0094 66.9144 92.01V92.01Z" fill="#902C8C"/>
<path d="M71.8763 92.0729C71.7554 92.0723 71.6378 92.0246 71.5404 91.9367C71.4417 91.8508 71.3682 91.7282 71.3308 91.5871C71.2934 91.4461 71.2941 91.2939 71.3328 91.1534L71.6143 90.0913C71.6345 90.0157 71.6345 89.9342 71.6145 89.8586C71.5944 89.783 71.5553 89.7171 71.5027 89.6704L70.7656 89.014C70.668 88.927 70.5953 88.8044 70.558 88.6637C70.5207 88.523 70.5207 88.3714 70.558 88.2307C70.5953 88.09 70.668 87.9674 70.7656 87.8805C70.8633 87.7935 70.9809 87.7467 71.1016 87.7467H72.0127C72.0776 87.7468 72.1408 87.7217 72.1933 87.675C72.2458 87.6282 72.2849 87.5622 72.3048 87.4865L72.5864 86.4245C72.6237 86.2838 72.6964 86.1612 72.794 86.0742C72.8916 85.9873 73.0093 85.9404 73.1299 85.9404C73.2506 85.9404 73.3682 85.9873 73.4659 86.0742C73.5635 86.1612 73.6362 86.2838 73.6735 86.4245L73.955 87.4865C73.975 87.5622 74.014 87.6282 74.0665 87.675C74.119 87.7217 74.1823 87.7468 74.2472 87.7467H75.1583C75.279 87.7467 75.3965 87.7935 75.4942 87.8805C75.5918 87.9674 75.6645 88.0901 75.7018 88.2308C75.7391 88.3714 75.7391 88.523 75.7018 88.6637C75.6645 88.8044 75.5918 88.927 75.4942 89.014L74.7571 89.6704C74.7046 89.717 74.6654 89.7829 74.6453 89.8586C74.6253 89.9342 74.6253 90.0157 74.6455 90.0913L74.9271 91.1534C74.9644 91.2941 74.9644 91.4456 74.927 91.5863C74.8897 91.727 74.8171 91.8496 74.7194 91.9366C74.6218 92.0235 74.5042 92.0704 74.3835 92.0704C74.2628 92.0704 74.1452 92.0235 74.0475 91.9366L73.3105 91.2802C73.258 91.2334 73.1948 91.2081 73.1299 91.2081C73.065 91.2081 73.0018 91.2334 72.9494 91.2802L72.2123 91.9366C72.1149 92.0246 71.9973 92.0723 71.8763 92.0729V92.0729ZM73.1299 90.8839C73.2507 90.8839 73.3683 90.9309 73.4658 91.0181L74.2029 91.6744C74.2554 91.7212 74.3186 91.7464 74.3835 91.7464C74.4483 91.7464 74.5115 91.7212 74.564 91.6745C74.6165 91.6278 74.6556 91.5619 74.6756 91.4862C74.6957 91.4106 74.6957 91.3291 74.6756 91.2535L74.3941 90.1915C74.3566 90.0508 74.3565 89.8992 74.3938 89.7584C74.4311 89.6176 74.5039 89.495 74.6017 89.4083L75.3388 88.7518C75.3913 88.7051 75.4303 88.6392 75.4504 88.5636C75.4704 88.488 75.4704 88.4065 75.4504 88.3309C75.4303 88.2553 75.3913 88.1894 75.3388 88.1426C75.2863 88.0959 75.2231 88.0707 75.1582 88.0707H74.2472C74.1264 88.071 74.0087 88.0243 73.911 87.9373C73.8133 87.8503 73.7407 87.7275 73.7036 87.5867L73.4221 86.5247C73.402 86.449 73.3629 86.3831 73.3105 86.3364C73.258 86.2896 73.1948 86.2644 73.1299 86.2644C73.065 86.2644 73.0018 86.2896 72.9493 86.3364C72.8968 86.3831 72.8578 86.449 72.8377 86.5247L72.5562 87.5867C72.5191 87.7275 72.4465 87.8503 72.3488 87.9373C72.2511 88.0243 72.1334 88.071 72.0127 88.0707H71.1016C71.0367 88.0707 70.9735 88.0959 70.921 88.1426C70.8685 88.1894 70.8295 88.2552 70.8094 88.3309C70.7894 88.4065 70.7894 88.4879 70.8094 88.5636C70.8295 88.6392 70.8685 88.7051 70.921 88.7518L71.6581 89.4083C71.7559 89.495 71.8287 89.6176 71.8661 89.7584C71.9034 89.8992 71.9033 90.0508 71.8657 90.1915L71.5842 91.2535C71.5641 91.3291 71.5641 91.4106 71.5842 91.4862C71.6042 91.5618 71.6433 91.6277 71.6958 91.6745C71.7482 91.7212 71.8115 91.7464 71.8763 91.7464C71.9412 91.7464 72.0044 91.7212 72.0569 91.6744L72.794 91.0181C72.8916 90.9309 73.0092 90.884 73.1299 90.8839V90.8839Z" fill="#3F3D56"/>
<path d="M26.2697 65.3631C26.0419 65.3631 25.8233 65.4741 25.6622 65.6716C25.5011 65.8691 25.4106 66.1369 25.4106 66.4162C25.4106 66.6955 25.5011 66.9633 25.6622 67.1608C25.8233 67.3583 26.0419 67.4693 26.2697 67.4693H69.7561C69.984 67.4693 70.2025 67.3583 70.3636 67.1608C70.5247 66.9633 70.6152 66.6955 70.6152 66.4162C70.6152 66.1369 70.5247 65.8691 70.3636 65.6716C70.2025 65.4741 69.984 65.3631 69.7561 65.3631H26.2697Z" fill="#CCCCCC"/>
<path d="M26.2697 70.8715C26.0419 70.8715 25.8233 70.9825 25.6622 71.1799C25.5011 71.3774 25.4106 71.6453 25.4106 71.9246C25.4106 72.2039 25.5011 72.4717 25.6622 72.6692C25.8233 72.8667 26.0419 72.9777 26.2697 72.9777H69.7561C69.984 72.9777 70.2025 72.8667 70.3636 72.6692C70.5247 72.4717 70.6152 72.2039 70.6152 71.9246C70.6152 71.6453 70.5247 71.3774 70.3636 71.1799C70.2025 70.9825 69.984 70.8715 69.7561 70.8715H26.2697Z" fill="#CCCCCC"/>
<path d="M26.2697 76.3799C26.0419 76.3799 25.8233 76.4908 25.6622 76.6883C25.5011 76.8858 25.4106 77.1537 25.4106 77.433C25.4106 77.7122 25.5011 77.9801 25.6622 78.1776C25.8233 78.3751 26.0419 78.486 26.2697 78.486H69.7561C69.984 78.486 70.2025 78.3751 70.3636 78.1776C70.5247 77.9801 70.6152 77.7122 70.6152 77.433C70.6152 77.1537 70.5247 76.8858 70.3636 76.6883C70.2025 76.4908 69.984 76.3799 69.7561 76.3799H26.2697Z" fill="#CCCCCC"/>
<path d="M26.2697 65.3631C26.0419 65.3631 25.8233 65.4741 25.6622 65.6716C25.5011 65.8691 25.4106 66.1369 25.4106 66.4162C25.4106 66.6955 25.5011 66.9633 25.6622 67.1608C25.8233 67.3583 26.0419 67.4693 26.2697 67.4693H69.7561C69.984 67.4693 70.2025 67.3583 70.3636 67.1608C70.5247 66.9633 70.6152 66.6955 70.6152 66.4162C70.6152 66.1369 70.5247 65.8691 70.3636 65.6716C70.2025 65.4741 69.984 65.3631 69.7561 65.3631H26.2697Z" fill="#CCCCCC"/>
<path d="M26.2697 70.8715C26.0419 70.8715 25.8233 70.9825 25.6622 71.1799C25.5011 71.3774 25.4106 71.6453 25.4106 71.9246C25.4106 72.2039 25.5011 72.4717 25.6622 72.6692C25.8233 72.8667 26.0419 72.9777 26.2697 72.9777H69.7561C69.984 72.9777 70.2025 72.8667 70.3636 72.6692C70.5247 72.4717 70.6152 72.2039 70.6152 71.9246C70.6152 71.6453 70.5247 71.3774 70.3636 71.1799C70.2025 70.9825 69.984 70.8715 69.7561 70.8715H26.2697Z" fill="#CCCCCC"/>
<path d="M26.2697 76.3799C26.0419 76.3799 25.8233 76.4908 25.6622 76.6883C25.5011 76.8858 25.4106 77.1537 25.4106 77.433C25.4106 77.7122 25.5011 77.9801 25.6622 78.1776C25.8233 78.3751 26.0419 78.486 26.2697 78.486H69.7561C69.984 78.486 70.2025 78.3751 70.3636 78.1776C70.5247 77.9801 70.6152 77.7122 70.6152 77.433C70.6152 77.1537 70.5247 76.8858 70.3636 76.6883C70.2025 76.4908 69.984 76.3799 69.7561 76.3799H26.2697Z" fill="#CCCCCC"/>
<path d="M76.1006 42.8436H19.9252C19.6799 42.8432 19.4448 42.7236 19.2713 42.511C19.0978 42.2984 19.0003 42.0102 19 41.7095V21.1341C19.0003 20.8334 19.0978 20.5451 19.2713 20.3325C19.4448 20.1199 19.6799 20.0003 19.9252 20H76.1006C76.3459 20.0003 76.5811 20.1199 76.7546 20.3325C76.928 20.5451 77.0256 20.8334 77.0259 21.1341V41.7095C77.0256 42.0102 76.928 42.2984 76.7546 42.511C76.5811 42.7236 76.3459 42.8432 76.1006 42.8436ZM19.9252 20.324C19.75 20.3243 19.582 20.4097 19.4581 20.5616C19.3343 20.7134 19.2646 20.9193 19.2644 21.1341V41.7095C19.2646 41.9243 19.3343 42.1302 19.4581 42.282C19.582 42.4339 19.75 42.5193 19.9252 42.5196H76.1006C76.2759 42.5193 76.4438 42.4339 76.5677 42.282C76.6916 42.1302 76.7613 41.9243 76.7615 41.7095V21.1341C76.7613 20.9193 76.6916 20.7134 76.5677 20.5616C76.4438 20.4097 76.2759 20.3243 76.1006 20.324H19.9252Z" fill="#3F3D56"/>
<path d="M44.507 51.5072C44.3968 51.5066 44.2897 51.4631 44.2011 51.383L43.464 50.7266C43.4029 50.6719 43.3291 50.6424 43.2534 50.6424C43.1776 50.6424 43.1039 50.6719 43.0427 50.7266L42.3056 51.383C42.2168 51.4622 42.1097 51.5048 41.9998 51.5048C41.8899 51.5048 41.7829 51.4622 41.694 51.3831C41.6051 51.3039 41.5389 51.1923 41.505 51.0642C41.471 50.9361 41.471 50.7981 41.5049 50.67L41.7865 49.608C41.81 49.5198 41.8101 49.4247 41.7867 49.3364C41.7633 49.2481 41.7176 49.1712 41.6563 49.1168L40.9192 48.4604C40.8303 48.3812 40.7641 48.2696 40.7302 48.1415C40.6962 48.0134 40.6962 47.8755 40.7302 47.7474C40.7641 47.6193 40.8303 47.5077 40.9192 47.4285C41.0081 47.3493 41.1151 47.3067 41.225 47.3067H42.1361C42.2118 47.3069 42.2856 47.2776 42.3469 47.223C42.4082 47.1685 42.4537 47.0915 42.477 47.0032L42.7585 45.9411C42.7924 45.813 42.8586 45.7014 42.9475 45.6222C43.0364 45.543 43.1435 45.5004 43.2534 45.5004C43.3633 45.5004 43.4703 45.543 43.5592 45.6222C43.6481 45.7014 43.7143 45.813 43.7482 45.9411L44.0298 47.0032C44.053 47.0915 44.0986 47.1685 44.1598 47.223C44.2211 47.2776 44.2949 47.3069 44.3706 47.3067H45.2817C45.3916 47.3067 45.4986 47.3493 45.5875 47.4285C45.6764 47.5077 45.7426 47.6193 45.7765 47.7474C45.8105 47.8755 45.8105 48.0134 45.7765 48.1415C45.7426 48.2696 45.6764 48.3812 45.5875 48.4604L44.8504 49.1168C44.7891 49.1712 44.7434 49.2481 44.72 49.3364C44.6967 49.4247 44.6967 49.5198 44.7203 49.608L45.0018 50.67C45.037 50.798 45.0376 50.9365 45.0036 51.0649C44.9695 51.1933 44.9026 51.3049 44.8128 51.383C44.7242 51.4631 44.6171 51.5066 44.507 51.5072Z" fill="#902C8C"/>
<path d="M51.9761 51.5072C51.866 51.5066 51.7589 51.4631 51.6702 51.383L50.9332 50.7266C50.872 50.6719 50.7982 50.6424 50.7225 50.6424C50.6468 50.6424 50.573 50.6719 50.5119 50.7266L49.7748 51.383C49.6859 51.4622 49.5788 51.5048 49.469 51.5048C49.3591 51.5048 49.252 51.4622 49.1631 51.3831C49.0742 51.3039 49.0081 51.1923 48.9741 51.0642C48.9401 50.9361 48.9401 50.7981 48.9741 50.67L49.2556 49.608C49.2791 49.5198 49.2792 49.4247 49.2558 49.3364C49.2324 49.2481 49.1868 49.1712 49.1254 49.1168L48.3883 48.4604C48.2995 48.3812 48.2333 48.2696 48.1993 48.1415C48.1654 48.0134 48.1654 47.8755 48.1994 47.7474C48.2333 47.6193 48.2995 47.5077 48.3884 47.4285C48.4773 47.3493 48.5843 47.3067 48.6942 47.3067H49.6053C49.681 47.3069 49.7548 47.2776 49.816 47.223C49.8773 47.1685 49.9228 47.0915 49.9461 47.0032L50.2277 45.9411C50.2616 45.813 50.3278 45.7014 50.4167 45.6222C50.5056 45.543 50.6126 45.5004 50.7225 45.5004C50.8324 45.5004 50.9395 45.543 51.0284 45.6222C51.1173 45.7014 51.1834 45.813 51.2174 45.9411L51.4989 47.0032C51.5222 47.0915 51.5677 47.1685 51.629 47.223C51.6902 47.2776 51.7641 47.3069 51.8398 47.3067H52.7508C52.8607 47.3067 52.9678 47.3493 53.0567 47.4285C53.1456 47.5077 53.2117 47.6193 53.2457 47.7474C53.2796 47.8755 53.2796 48.0134 53.2457 48.1415C53.2117 48.2696 53.1456 48.3812 53.0567 48.4604L52.3196 49.1168C52.2583 49.1712 52.2126 49.2481 52.1892 49.3364C52.1658 49.4247 52.1659 49.5198 52.1894 49.608L52.4709 50.67C52.5061 50.798 52.5068 50.9365 52.4727 51.0649C52.4387 51.1933 52.3717 51.3049 52.2819 51.383C52.1933 51.4631 52.0862 51.5066 51.9761 51.5072V51.5072Z" fill="#902C8C"/>
<path d="M59.4452 51.5072C59.3351 51.5066 59.228 51.4631 59.1394 51.383L58.4023 50.7266C58.3411 50.672 58.2673 50.6426 58.1916 50.6426C58.1159 50.6426 58.0422 50.672 57.981 50.7266L57.2439 51.383C57.155 51.4622 57.048 51.5048 56.9381 51.5048C56.8282 51.5048 56.7211 51.4622 56.6322 51.3831C56.5434 51.3039 56.4772 51.1923 56.4432 51.0642C56.4093 50.9361 56.4093 50.7981 56.4432 50.67L56.7247 49.608C56.7483 49.5198 56.7483 49.4247 56.7249 49.3364C56.7015 49.2481 56.6559 49.1712 56.5945 49.1168L55.8575 48.4604C55.7686 48.3812 55.7024 48.2696 55.6685 48.1415C55.6345 48.0134 55.6345 47.8755 55.6685 47.7474C55.7024 47.6193 55.7686 47.5077 55.8575 47.4285C55.9464 47.3493 56.0534 47.3067 56.1633 47.3067H57.0744C57.1501 47.3069 57.2239 47.2776 57.2852 47.223C57.3464 47.1685 57.392 47.0915 57.4152 47.0032L57.6968 45.9411C57.7307 45.813 57.7969 45.7014 57.8858 45.6222C57.9747 45.543 58.0817 45.5004 58.1916 45.5004C58.3015 45.5004 58.4086 45.543 58.4975 45.6222C58.5864 45.7014 58.6526 45.813 58.6865 45.9411L58.968 47.0032C58.9913 47.0915 59.0369 47.1685 59.0981 47.223C59.1594 47.2776 59.2332 47.3069 59.3089 47.3067H60.22C60.3298 47.3067 60.4369 47.3493 60.5258 47.4285C60.6147 47.5077 60.6808 47.6193 60.7148 47.7474C60.7488 47.8755 60.7488 48.0134 60.7148 48.1415C60.6809 48.2696 60.6147 48.3812 60.5258 48.4604L59.7887 49.1168C59.7274 49.1712 59.6817 49.2481 59.6583 49.3364C59.6349 49.4247 59.635 49.5198 59.6586 49.608L59.9401 50.67C59.9753 50.798 59.9759 50.9365 59.9418 51.0649C59.9078 51.1933 59.8409 51.3049 59.7511 51.383C59.6624 51.4631 59.5553 51.5066 59.4452 51.5072V51.5072Z" fill="#902C8C"/>
<path d="M71.8763 51.5701C71.7554 51.5695 71.6378 51.5218 71.5404 51.4339C71.4417 51.348 71.3682 51.2254 71.3308 51.0844C71.2934 50.9433 71.2941 50.7911 71.3328 50.6506L71.6143 49.5886C71.6345 49.5129 71.6345 49.4314 71.6145 49.3558C71.5944 49.2802 71.5553 49.2143 71.5027 49.1676L70.7656 48.5112C70.668 48.4242 70.5953 48.3016 70.558 48.1609C70.5207 48.0202 70.5207 47.8686 70.558 47.7279C70.5953 47.5872 70.668 47.4646 70.7656 47.3777C70.8633 47.2907 70.9809 47.2439 71.1016 47.2439H72.0127C72.0776 47.244 72.1408 47.2189 72.1933 47.1722C72.2458 47.1254 72.2849 47.0594 72.3048 46.9837L72.5864 45.9217C72.6237 45.781 72.6964 45.6584 72.794 45.5714C72.8916 45.4845 73.0093 45.4376 73.1299 45.4376C73.2506 45.4376 73.3682 45.4845 73.4659 45.5714C73.5635 45.6584 73.6362 45.781 73.6735 45.9217L73.955 46.9837C73.975 47.0594 74.014 47.1254 74.0665 47.1722C74.119 47.2189 74.1823 47.244 74.2472 47.2439H75.1583C75.279 47.2439 75.3965 47.2907 75.4942 47.3777C75.5918 47.4647 75.6645 47.5873 75.7018 47.728C75.7391 47.8687 75.7391 48.0202 75.7018 48.1609C75.6645 48.3016 75.5918 48.4242 75.4942 48.5112L74.7571 49.1676C74.7046 49.2142 74.6654 49.2801 74.6453 49.3558C74.6253 49.4314 74.6253 49.5129 74.6455 49.5886L74.9271 50.6506C74.9644 50.7913 74.9644 50.9428 74.927 51.0835C74.8897 51.2242 74.8171 51.3468 74.7194 51.4338C74.6218 51.5208 74.5042 51.5676 74.3835 51.5676C74.2628 51.5676 74.1452 51.5208 74.0475 51.4338L73.3105 50.7775C73.258 50.7306 73.1948 50.7053 73.1299 50.7053C73.065 50.7053 73.0018 50.7306 72.9494 50.7775L72.2123 51.4338C72.1149 51.5218 71.9973 51.5695 71.8763 51.5701V51.5701ZM73.1299 50.3811C73.2507 50.3812 73.3683 50.4281 73.4658 50.5153L74.2029 51.1716C74.2554 51.2184 74.3186 51.2436 74.3835 51.2436C74.4483 51.2436 74.5115 51.2185 74.564 51.1717C74.6165 51.125 74.6556 51.0591 74.6756 50.9834C74.6957 50.9078 74.6957 50.8263 74.6756 50.7507L74.3941 49.6887C74.3566 49.548 74.3565 49.3964 74.3938 49.2556C74.4311 49.1148 74.5039 48.9922 74.6017 48.9055L75.3388 48.249C75.3913 48.2023 75.4303 48.1364 75.4504 48.0608C75.4704 47.9852 75.4704 47.9037 75.4504 47.8281C75.4303 47.7525 75.3913 47.6866 75.3388 47.6398C75.2863 47.5931 75.2231 47.5679 75.1582 47.5679H74.2472C74.1264 47.5682 74.0087 47.5215 73.911 47.4345C73.8133 47.3475 73.7407 47.2247 73.7036 47.0839L73.4221 46.0219C73.402 45.9462 73.3629 45.8803 73.3105 45.8336C73.258 45.7868 73.1948 45.7617 73.1299 45.7617C73.065 45.7617 73.0018 45.7868 72.9493 45.8336C72.8968 45.8803 72.8578 45.9462 72.8377 46.0219L72.5562 47.0839C72.5191 47.2247 72.4465 47.3475 72.3488 47.4345C72.2511 47.5215 72.1334 47.5682 72.0127 47.5679H71.1016C71.0367 47.5679 70.9735 47.5931 70.921 47.6398C70.8685 47.6866 70.8295 47.7525 70.8094 47.8281C70.7894 47.9037 70.7894 47.9851 70.8094 48.0608C70.8295 48.1364 70.8685 48.2023 70.921 48.249L71.6581 48.9055C71.7559 48.9923 71.8287 49.1149 71.8661 49.2556C71.9034 49.3964 71.9033 49.548 71.8657 49.6887L71.5842 50.7507C71.5641 50.8263 71.5641 50.9078 71.5842 50.9834C71.6042 51.059 71.6433 51.1249 71.6958 51.1717C71.7482 51.2184 71.8115 51.2436 71.8763 51.2436C71.9412 51.2436 72.0044 51.2184 72.0569 51.1716L72.794 50.5153C72.8916 50.4281 73.0092 50.3812 73.1299 50.3811V50.3811Z" fill="#3F3D56"/>
<path d="M64.3423 51.5441C64.2214 51.5435 64.1037 51.4958 64.0064 51.4079C63.9077 51.322 63.8342 51.1994 63.7968 51.0583C63.7594 50.9172 63.76 50.7651 63.7987 50.6245L64.0803 49.5625C64.1004 49.4869 64.1005 49.4054 64.0804 49.3298C64.0604 49.2541 64.0212 49.1882 63.9687 49.1416L63.2316 48.4852C63.1339 48.3982 63.0612 48.2756 63.0239 48.1349C62.9866 47.9942 62.9866 47.8426 63.024 47.7019C63.0613 47.5612 63.1339 47.4386 63.2316 47.3517C63.3292 47.2647 63.4468 47.2179 63.5675 47.2179H64.4786C64.5435 47.218 64.6068 47.1929 64.6593 47.1461C64.7118 47.0994 64.7508 47.0334 64.7707 46.9577L65.0523 45.8957C65.0896 45.755 65.1623 45.6324 65.2599 45.5454C65.3576 45.4585 65.4752 45.4116 65.5959 45.4116C65.7166 45.4116 65.8342 45.4585 65.9318 45.5454C66.0295 45.6324 66.1022 45.755 66.1395 45.8957L66.421 46.9577C66.4409 47.0334 66.4799 47.0994 66.5324 47.1461C66.5849 47.1929 66.6482 47.218 66.7131 47.2179H67.6242C67.7449 47.2179 67.8625 47.2647 67.9601 47.3517C68.0578 47.4386 68.1304 47.5612 68.1677 47.7019C68.205 47.8426 68.205 47.9942 68.1678 48.1349C68.1305 48.2756 68.0578 48.3982 67.9601 48.4852L67.2231 49.1416C67.1705 49.1882 67.1313 49.2541 67.1113 49.3298C67.0912 49.4054 67.0913 49.4869 67.1115 49.5625L67.393 50.6245C67.4303 50.7652 67.4303 50.9168 67.393 51.0575C67.3557 51.1982 67.283 51.3208 67.1854 51.4078C67.0877 51.4947 66.9701 51.5416 66.8494 51.5416C66.7287 51.5416 66.6111 51.4947 66.5135 51.4078L65.7764 50.7514C65.724 50.7045 65.6608 50.6793 65.5959 50.6793C65.5309 50.6793 65.4677 50.7045 65.4153 50.7514L64.6782 51.4078C64.5809 51.4958 64.4632 51.5435 64.3423 51.5441V51.5441ZM65.5959 50.3551C65.7166 50.3551 65.8342 50.4021 65.9318 50.4893L66.6688 51.1456C66.7213 51.1924 66.7845 51.2176 66.8494 51.2176C66.9143 51.2176 66.9775 51.1924 67.03 51.1457C67.0825 51.099 67.1215 51.033 67.1416 50.9574C67.1616 50.8818 67.1616 50.8003 67.1416 50.7247L66.86 49.6627C66.8225 49.522 66.8224 49.3703 66.8597 49.2296C66.897 49.0888 66.9698 48.9662 67.0677 48.8794L67.8047 48.223C67.8572 48.1763 67.8963 48.1104 67.9163 48.0348C67.9363 47.9591 67.9363 47.8777 67.9163 47.8021C67.8963 47.7264 67.8572 47.6605 67.8047 47.6138C67.7522 47.5671 67.689 47.5419 67.6242 47.5419H66.7131C66.5923 47.5422 66.4746 47.4954 66.377 47.4085C66.2793 47.3215 66.2066 47.1987 66.1695 47.0578L65.888 45.9958C65.8679 45.9202 65.8289 45.8543 65.7764 45.8076C65.7239 45.7608 65.6607 45.7356 65.5958 45.7356C65.531 45.7356 65.4677 45.7608 65.4153 45.8076C65.3628 45.8543 65.3237 45.9202 65.3037 45.9958L65.0221 47.0578C64.985 47.1987 64.9124 47.3215 64.8147 47.4085C64.7171 47.4954 64.5994 47.5422 64.4786 47.5419H63.5675C63.5027 47.5419 63.4395 47.5671 63.387 47.6138C63.3345 47.6605 63.2954 47.7264 63.2754 47.802C63.2553 47.8777 63.2553 47.9591 63.2754 48.0347C63.2954 48.1104 63.3345 48.1763 63.387 48.223L64.1241 48.8794C64.2219 48.9662 64.2947 49.0888 64.332 49.2296C64.3693 49.3704 64.3692 49.522 64.3317 49.6627L64.0501 50.7247C64.0301 50.8003 64.0301 50.8818 64.0501 50.9574C64.0702 51.033 64.1092 51.0989 64.1617 51.1456C64.2142 51.1924 64.2774 51.2175 64.3423 51.2175C64.4071 51.2175 64.4703 51.1924 64.5228 51.1456L65.2599 50.4893C65.3575 50.4021 65.4751 50.3551 65.5959 50.3551V50.3551Z" fill="#3F3D56"/>
<path d="M26.2697 24.8603C26.0419 24.8603 25.8233 24.9713 25.6622 25.1688C25.5011 25.3663 25.4106 25.6341 25.4106 25.9134C25.4106 26.1927 25.5011 26.4606 25.6622 26.658C25.8233 26.8555 26.0419 26.9665 26.2697 26.9665H69.7561C69.984 26.9665 70.2025 26.8555 70.3636 26.658C70.5247 26.4606 70.6152 26.1927 70.6152 25.9134C70.6152 25.6341 70.5247 25.3663 70.3636 25.1688C70.2025 24.9713 69.984 24.8603 69.7561 24.8603H26.2697Z" fill="#CCCCCC"/>
<path d="M26.2697 30.3687C26.0419 30.3687 25.8233 30.4797 25.6622 30.6772C25.5011 30.8746 25.4106 31.1425 25.4106 31.4218C25.4106 31.7011 25.5011 31.9689 25.6622 32.1664C25.8233 32.3639 26.0419 32.4749 26.2697 32.4749H69.7561C69.984 32.4749 70.2025 32.3639 70.3636 32.1664C70.5247 31.9689 70.6152 31.7011 70.6152 31.4218C70.6152 31.1425 70.5247 30.8746 70.3636 30.6772C70.2025 30.4797 69.984 30.3687 69.7561 30.3687H26.2697Z" fill="#CCCCCC"/>
<path d="M26.2697 35.8771C26.0419 35.8771 25.8233 35.988 25.6622 36.1855C25.5011 36.383 25.4106 36.6509 25.4106 36.9302C25.4106 37.2095 25.5011 37.4773 25.6622 37.6748C25.8233 37.8723 26.0419 37.9832 26.2697 37.9832H69.7561C69.984 37.9832 70.2025 37.8723 70.3636 37.6748C70.5247 37.4773 70.6152 37.2095 70.6152 36.9302C70.6152 36.6509 70.5247 36.383 70.3636 36.1855C70.2025 35.988 69.984 35.8771 69.7561 35.8771H26.2697Z" fill="#CCCCCC"/>
<path d="M26.2697 24.8603C26.0419 24.8603 25.8233 24.9713 25.6622 25.1688C25.5011 25.3663 25.4106 25.6341 25.4106 25.9134C25.4106 26.1927 25.5011 26.4606 25.6622 26.658C25.8233 26.8555 26.0419 26.9665 26.2697 26.9665H69.7561C69.984 26.9665 70.2025 26.8555 70.3636 26.658C70.5247 26.4606 70.6152 26.1927 70.6152 25.9134C70.6152 25.6341 70.5247 25.3663 70.3636 25.1688C70.2025 24.9713 69.984 24.8603 69.7561 24.8603H26.2697Z" fill="#CCCCCC"/>
<path d="M26.2697 30.3687C26.0419 30.3687 25.8233 30.4797 25.6622 30.6772C25.5011 30.8746 25.4106 31.1425 25.4106 31.4218C25.4106 31.7011 25.5011 31.9689 25.6622 32.1664C25.8233 32.3639 26.0419 32.4749 26.2697 32.4749H69.7561C69.984 32.4749 70.2025 32.3639 70.3636 32.1664C70.5247 31.9689 70.6152 31.7011 70.6152 31.4218C70.6152 31.1425 70.5247 30.8746 70.3636 30.6772C70.2025 30.4797 69.984 30.3687 69.7561 30.3687H26.2697Z" fill="#CCCCCC"/>
<path d="M26.2697 35.8771C26.0419 35.8771 25.8233 35.988 25.6622 36.1855C25.5011 36.383 25.4106 36.6509 25.4106 36.9302C25.4106 37.2095 25.5011 37.4773 25.6622 37.6748C25.8233 37.8723 26.0419 37.9832 26.2697 37.9832H69.7561C69.984 37.9832 70.2025 37.8723 70.3636 37.6748C70.5247 37.4773 70.6152 37.2095 70.6152 36.9302C70.6152 36.6509 70.5247 36.383 70.3636 36.1855C70.2025 35.988 69.984 35.8771 69.7561 35.8771H26.2697Z" fill="#CCCCCC"/>
</g>
</g>
<defs>
<filter id="filter0_d_59_833" x="0" y="0" width="145" height="136" filterUnits="userSpaceOnUse" color-interpolation-filters="sRGB">
<feFlood flood-opacity="0" result="BackgroundImageFix"/>
<feColorMatrix in="SourceAlpha" type="matrix" values="0 0 0 0 0 0 0 0 0 0 0 0 0 0 0 0 0 0 127 0" result="hardAlpha"/>
<feOffset dy="4"/>
<feGaussianBlur stdDeviation="2"/>
<feComposite in2="hardAlpha" operator="out"/>
<feColorMatrix type="matrix" values="0 0 0 0 0 0 0 0 0 0 0 0 0 0 0 0 0 0 0.25 0"/>
<feBlend mode="normal" in2="BackgroundImageFix" result="effect1_dropShadow_59_833"/>
<feBlend mode="normal" in="SourceGraphic" in2="effect1_dropShadow_59_833" result="shape"/>
</filter>
<clipPath id="clip0_59_833">
<rect width="106" height="87" fill="white" transform="translate(19 20)"/>
</clipPath>
</defs>
</svg>
