<svg width="145" height="136" viewBox="0 0 145 136" fill="none" xmlns="http://www.w3.org/2000/svg">
<g filter="url(#filter0_d_59_836)">
<rect x="4.5" y="0.5" width="136" height="127" rx="12.5" fill="#FAFAFA" stroke="#EFEFEF"/>
<g clip-path="url(#clip0_59_836)">
<path d="M114.44 101.068V101.159C114.44 101.183 114.44 101.207 114.438 101.231C114.415 102.473 113.978 103.672 113.196 104.642C113.156 104.692 113.115 104.741 113.072 104.79C113.009 104.865 112.943 104.937 112.876 105.008C112.87 105.013 112.864 105.02 112.857 105.026L112.854 105.029C112.847 105.036 112.839 105.045 112.831 105.053C112.712 105.174 112.588 105.291 112.458 105.402C112.432 105.424 112.405 105.447 112.377 105.469C111.369 106.3 110.103 106.759 108.793 106.768C108.783 106.769 108.772 106.769 108.763 106.769H108.729C108.719 106.769 108.71 106.769 108.7 106.768C108.666 106.768 108.633 106.767 108.6 106.766C107.289 106.736 106.03 106.255 105.037 105.407C105.01 105.385 104.983 105.362 104.957 105.338C104.854 105.248 104.754 105.153 104.659 105.056C104.651 105.048 104.643 105.039 104.635 105.032L104.633 105.029C104.626 105.023 104.62 105.016 104.614 105.011C104.533 104.926 104.455 104.839 104.38 104.75C104.338 104.701 104.298 104.651 104.258 104.601C103.496 103.638 103.071 102.455 103.049 101.231C103.047 101.208 103.047 101.184 103.047 101.161V101.071C103.047 101.061 103.047 101.05 103.048 101.04C103.061 99.8136 103.479 98.6254 104.236 97.6564C104.275 97.6056 104.316 97.5558 104.357 97.5069C104.434 97.415 104.514 97.3259 104.596 97.2387C104.602 97.232 104.607 97.2263 104.614 97.2196C104.614 97.2186 104.615 97.2176 104.616 97.2167C104.624 97.209 104.632 97.2004 104.64 97.1927C104.747 97.0826 104.859 96.9766 104.975 96.8747C105.001 96.8507 105.028 96.8278 105.055 96.8057C106.071 95.9469 107.36 95.471 108.694 95.4617C108.704 95.4608 108.714 95.4608 108.724 95.4608H108.787C110.091 95.4689 111.352 95.9222 112.358 96.7444C112.385 96.7674 112.412 96.7894 112.439 96.8124C112.58 96.9312 112.715 97.0577 112.844 97.1899C112.851 97.1975 112.859 97.2061 112.867 97.2138L112.869 97.2157C112.876 97.2215 112.882 97.2291 112.888 97.2349C112.96 97.3096 113.028 97.3872 113.095 97.4657C113.137 97.5146 113.178 97.5635 113.218 97.6142C113.996 98.5905 114.426 99.7953 114.439 101.04C114.44 101.049 114.44 101.058 114.44 101.068V101.068Z" fill="#902C8C"/>
<path d="M108.793 95.4837H108.6V106.788H108.793V95.4837Z" fill="white"/>
<path d="M114.44 101.04H103.001V101.231H114.44V101.04Z" fill="white"/>
<path d="M106.281 101.04C106.266 100.342 106.084 99.6572 105.749 99.0429C105.415 98.4285 104.938 97.9021 104.357 97.5069C104.316 97.5558 104.275 97.6056 104.236 97.6564C104.794 98.0335 105.253 98.5371 105.575 99.1256C105.897 99.714 106.074 100.37 106.089 101.04C106.09 101.071 106.09 101.103 106.09 101.136C106.09 101.168 106.09 101.2 106.089 101.231C106.073 101.897 105.899 102.549 105.581 103.134C105.263 103.72 104.809 104.222 104.258 104.601C104.298 104.651 104.338 104.701 104.38 104.75C104.954 104.354 105.425 103.828 105.755 103.217C106.086 102.605 106.266 101.925 106.281 101.231C106.283 101.2 106.283 101.167 106.283 101.136C106.283 101.104 106.283 101.071 106.281 101.04Z" fill="white"/>
<path d="M111.303 101.231C111.302 101.2 111.302 101.168 111.302 101.136C111.302 101.103 111.302 101.071 111.303 101.04C111.319 100.358 111.502 99.6895 111.835 99.0928C112.169 98.4961 112.644 97.9887 113.218 97.6142C113.178 97.5635 113.137 97.5146 113.095 97.4657C112.498 97.8584 112.006 98.3886 111.661 99.011C111.315 99.6334 111.127 100.329 111.111 101.04C111.109 101.071 111.109 101.104 111.109 101.136C111.109 101.167 111.109 101.2 111.111 101.231C111.127 101.937 111.313 102.629 111.654 103.248C111.996 103.868 112.482 104.397 113.073 104.79C113.115 104.741 113.157 104.692 113.196 104.642C112.627 104.266 112.158 103.76 111.829 103.167C111.499 102.573 111.319 101.909 111.303 101.231V101.231Z" fill="white"/>
<path d="M119 106.734H26V106.948H119V106.734Z" fill="#2F2E41"/>
<path d="M113.666 63.8354C113.684 74.0527 109.734 83.8839 102.636 91.2848C102.588 91.3355 102.539 91.3863 102.49 91.4371C98.7439 95.3126 94.2475 98.3967 89.2706 100.504C84.2937 102.612 78.9389 103.699 73.5278 103.701C68.1168 103.703 62.7612 102.62 57.7826 100.516C52.8041 98.4125 48.3053 95.3318 44.5565 91.4592C44.5073 91.4084 44.458 91.3577 44.4097 91.3069C37.3374 83.9232 33.383 74.1317 33.3589 63.9443C33.3349 53.7568 37.2431 43.9471 44.2805 36.5306C44.3277 36.4788 44.377 36.428 44.4262 36.3772C48.1749 32.4681 52.6846 29.3554 57.6818 27.2278C62.6789 25.1002 68.0594 24.0021 73.497 24C78.9346 23.998 84.316 25.092 89.3148 27.2158C94.3136 29.3396 98.8257 32.4489 102.577 36.3551C102.627 36.4059 102.676 36.4566 102.723 36.5083C109.76 43.8918 113.677 53.6722 113.666 63.8354V63.8354Z" fill="#3F3D56"/>
<path d="M113.666 63.7549H33.3588V63.9464H113.666V63.7549Z" fill="white"/>
<path d="M73.6089 24H73.4159V103.701H73.6089V24Z" fill="white"/>
<path d="M55.9498 50.7162C54.2284 46.676 51.733 43.0058 48.6021 39.9095C47.3072 38.6236 45.9107 37.4424 44.4261 36.3772C44.3769 36.428 44.3277 36.4788 44.2805 36.5306C52.857 42.6735 58.4505 52.6762 58.4549 63.9522C58.4592 75.1803 52.9207 85.1508 44.4097 91.3069C44.458 91.3577 44.5073 91.4084 44.5565 91.4592C45.9996 90.4133 47.3584 89.2575 48.6207 88.0023C53.4379 83.2139 56.7079 77.1095 58.0133 70.4682C59.3187 63.827 58.6003 56.9504 55.9498 50.7162V50.7162Z" fill="white"/>
<path d="M88.57 63.9407C88.5657 52.6647 94.1515 42.6578 102.723 36.5083C102.676 36.4566 102.627 36.4059 102.577 36.3551C98.1921 39.5052 94.6204 43.6409 92.1545 48.4239C89.6887 53.2069 88.3987 58.5012 88.3901 63.8739C88.3816 69.2466 89.6546 74.545 92.1052 79.3356C94.5558 84.1263 98.1143 88.2732 102.49 91.4371C102.539 91.3863 102.588 91.3355 102.636 91.2847C94.1216 85.1351 88.5744 75.1688 88.57 63.9407Z" fill="white"/>
<path d="M63.7362 91.4799L63.4687 96.7889L66.277 97.3198L67.0794 92.2763L63.7362 91.4799Z" fill="#9D616A"/>
<path d="M77.6443 93.2054L78.313 97.5852H80.8539L80.3189 92.9399L77.6443 93.2054Z" fill="#9D616A"/>
<path d="M64.2711 81.2602L63.7362 87.3655L63.2012 92.5417C63.2012 92.5417 65.2072 91.7454 67.0795 92.9399C67.0795 92.9399 68.2831 92.6744 68.0156 87.4982L69.2192 82.0566L64.2711 81.2602Z" fill="#EFEFEF"/>
<path d="M75.1034 83.2511C75.1034 83.2511 75.9058 88.0291 76.307 88.4273C76.307 88.4273 76.9693 92.7001 77.2911 93.7802C77.3104 93.8572 77.3392 93.9316 77.3768 94.0017C77.6443 94.3998 80.5864 95.3289 80.7202 93.7362C80.8539 92.1435 81.2551 89.4891 79.9178 87.4982L79.1154 82.4548L75.1034 83.2511Z" fill="#EFEFEF"/>
<path d="M83.1942 82.6538C83.0605 84.1138 75.7052 83.8484 74.3679 83.8484C73.9453 83.8484 73.4024 83.7833 73.1322 83.0587C72.6695 81.8203 72.4154 80.0113 72.3298 79.3039C72.295 79.9596 71.9901 81.5469 71.2279 82.5636C70.7638 83.1847 69.9962 83.0613 69.1523 82.9193C67.7508 82.683 64.9652 81.823 64.2042 81.9902C63.0006 82.2557 61.5523 82.2822 61.5296 81.9902C61.5192 81.8306 61.5201 81.6705 61.5323 81.5111C61.7088 78.7664 64.2711 71.3259 64.2711 70.7751C64.2711 70.1115 65.4747 67.3243 65.4747 67.3243L77.7781 65.8643C77.7781 65.8643 82.6513 78.9111 83.3213 82.1229C83.3788 82.4003 83.2049 82.5384 83.1942 82.6538Z" fill="#EFEFEF"/>
<path d="M66.6783 96.6561L63.2012 95.9925L63.5356 101.501L66.2771 103.425C66.2771 103.425 66.0096 98.1161 66.6783 96.6561Z" fill="#EFEFEF"/>
<path d="M80.8539 96.258C80.8539 96.258 79.1154 97.3198 77.6443 96.258L78.8479 101.169L80.8539 100.903C80.8539 100.903 81.7901 97.9834 80.8539 96.258Z" fill="#EFEFEF"/>
<path d="M81.2551 100.372C81.2551 100.372 78.4467 100.505 78.4467 100.771V105.15C78.4467 105.549 78.9816 106.079 78.8479 106.345C78.7142 106.61 79.6503 107.274 81.79 106.876C83.9297 106.478 83.1273 105.15 83.1273 105.15C83.1273 105.15 80.9876 101.434 81.2551 100.372Z" fill="#2F2E41"/>
<path d="M63.1344 100.439C63.1344 100.439 66.3439 100.505 66.3439 100.771V105.15C66.3439 105.549 65.809 106.079 65.9427 106.345C66.0765 106.61 65.1404 107.274 63.0006 106.876C60.8609 106.478 61.6633 105.15 61.6633 105.15C61.6633 105.15 63.4018 101.501 63.1344 100.439Z" fill="#2F2E41"/>
<path d="M83.3949 82.7202C83.2611 84.1802 75.5046 84.3129 74.1673 84.3129C73.7447 84.3129 73.4024 83.7833 73.1322 83.0587C74.5672 82.7759 80.739 81.6226 83.3213 82.123C83.3706 82.3183 83.3953 82.5189 83.3949 82.7202V82.7202Z" fill="#902C8C"/>
<path d="M71.2279 82.5636C70.7638 83.1847 70.1299 83.5922 69.2861 83.4502C67.8846 83.2139 64.9652 82.6193 64.2042 82.7866C63.0006 83.052 61.5523 82.2822 61.5296 81.9902C61.5192 81.8306 61.5201 81.6705 61.5323 81.5111C64.3473 81.4354 69.3329 81.4686 71.2279 82.5636Z" fill="#902C8C"/>
<path d="M66.0097 49.8048C66.0097 49.8048 63.6025 49.0085 61.4628 51.3975L61.0616 52.1939C61.0616 52.1939 57.9857 53.1229 57.0496 53.7865C57.0496 53.7865 54.2412 53.1229 50.7642 53.7865L47.2871 52.9902C47.2871 52.9902 40.6005 48.3449 39.9318 51.2648C39.2632 54.1847 46.2173 55.2465 46.2173 55.2465L51.9678 56.8392C51.9678 56.8392 56.3809 57.9009 58.1194 57.1046C58.1194 57.1046 63.0675 56.8392 64.0037 54.981L66.0097 55.9101V49.8048Z" fill="#9D616A"/>
<path d="M74.3011 49.1412C74.3011 49.1412 79.2491 48.6103 81.1214 51.1321L84.9996 52.1939C84.9996 52.1939 89.2791 51.3975 90.8839 51.7957L94.3609 50.8666C94.3609 50.8666 97.7042 45.5577 99.5765 47.0176C101.449 48.4776 95.1633 53.1229 95.1633 53.1229L86.7382 55.9101C86.7382 55.9101 80.1853 56.441 78.8479 54.052L77.3769 57.3701L71.7601 56.0428L74.3011 49.1412Z" fill="#9D616A"/>
<path d="M69.6204 48.4776C71.6146 48.4776 73.2312 46.8732 73.2312 44.8941C73.2312 42.9149 71.6146 41.3105 69.6204 41.3105C67.6262 41.3105 66.0096 42.9149 66.0096 44.8941C66.0096 46.8732 67.6262 48.4776 69.6204 48.4776Z" fill="#9D616A"/>
<path d="M67.7482 47.0176V49.9375L69.0855 54.5829L73.0975 49.9375C73.0975 49.9375 72.0276 46.7522 72.0276 46.2213C72.0276 45.6904 67.7482 47.0176 67.7482 47.0176Z" fill="#9D616A"/>
<path d="M78.3798 66.1962C78.3798 66.1962 78.3143 66.6753 77.7058 66.7191C76.4875 66.808 74.436 67.0137 73.0974 67.457C71.0914 68.1206 65.0735 68.1206 65.0735 68.1206L64.683 56.0986L64.8729 55.1801C64.7391 54.1183 65.809 49.8712 65.809 49.8712L66.59 49.2992L67.3215 49.1425L67.5475 49.3403C67.5475 51.1082 69.286 52.7911 69.286 52.7911C71.827 51.5966 72.8968 48.9421 72.8968 48.9421L73.6497 48.832L74.4374 48.9196L75.1502 48.9992L74.9028 49.2076L74.7691 49.473C74.761 49.489 74.7757 49.4571 74.7691 49.473C72.8219 53.5728 75.173 55.427 76.6413 56.2419C77.2499 56.5817 77.31 56.9055 77.31 56.9055C77.31 56.9055 77.8596 56.7423 77.8449 57.3037C77.8008 59.1207 77.4678 63.2232 77.9787 64.338C78.6473 65.798 78.3798 66.1962 78.3798 66.1962Z" fill="#EFEFEF"/>
<path d="M65.809 42.4715C65.8956 42.177 65.9973 41.8871 66.1139 41.603C66.2664 41.2556 66.1139 40.2135 66.2664 40.2135H66.8762L67.6385 39.5188L68.0958 39.8662L68.7057 39.5188L69.4679 39.8662L70.2302 39.5188L71.4499 40.3872L71.7548 40.2135L72.0597 40.7346H72.2121L72.822 41.603H73.1269V42.4715H73.4318V44.7294L73.0306 46.2877L72.8968 45.5231C72.8968 45.5126 72.8934 45.5025 72.8871 45.4941C72.8808 45.4858 72.872 45.4797 72.8619 45.4767C72.8518 45.4738 72.841 45.4742 72.8312 45.4778C72.8213 45.4815 72.8129 45.4882 72.8073 45.497L72.517 45.9452L72.3308 45.2381C72.0628 44.179 71.4336 43.2447 70.55 42.5939C69.4218 41.7815 67.7909 41.3946 66.1139 43.6873L65.809 42.4715Z" fill="#2F2E41"/>
<path d="M66.59 49.2992C66.3359 50.8321 65.5683 55.0713 64.683 56.0986L64.6723 55.7774C64.5386 54.7156 65.4747 49.5394 65.4747 49.5394L66.59 49.2992Z" fill="#902C8C"/>
<path d="M73.6497 48.832C72.9784 50.0902 71.0553 53.3379 69.2192 53.1229C67.4472 52.9159 67.3001 50.2906 67.3215 49.1425L67.7481 49.051C67.7481 50.8188 69.3529 52.3266 69.3529 52.3266C71.8938 51.1321 72.7029 48.7271 72.7029 48.7271L73.6497 48.832Z" fill="#902C8C"/>
<path d="M78.0455 56.441C78.0455 56.441 78.0309 56.7967 78.0162 57.3581C77.644 57.3382 77.2748 57.2813 76.9142 57.1882C72.7832 56.1065 73.9908 50.5388 74.4374 48.9196L75.1502 48.9992H75.1516C75.1716 49.0178 75.193 49.0377 75.2144 49.0576C73.2673 53.1574 75.4886 55.1509 76.9569 55.9658C77.3017 56.1622 77.6667 56.3215 78.0455 56.441V56.441Z" fill="#902C8C"/>
<path d="M78.7142 66.6607C78.7142 66.6607 78.3143 66.6753 77.7059 66.7191C77.4007 65.6076 77.1569 64.4805 76.9757 63.3426C76.7992 62.1162 76.8554 59.0994 76.9142 57.1882C76.9303 56.6879 76.945 56.2618 76.957 55.9658C77.3018 56.1622 77.6667 56.3215 78.0456 56.441C78.0456 56.441 78.0309 56.7967 78.0162 57.3581C77.972 59.1751 77.9359 63.1568 78.4468 64.2717C79.1154 65.7316 78.7142 66.6607 78.7142 66.6607Z" fill="#902C8C"/>
<path d="M66.2102 57.5588C66.2102 57.5588 70.4896 55.5268 74.6353 57.5588Z" fill="#902C8C"/>
<path d="M65.308 68.1614C65.308 68.1614 66.5628 68.0656 69.6515 68.353C72.7403 68.6404 77.856 66.7245 77.856 66.7245" fill="#CACACA"/>
<path d="M48.4184 46.752V46.843C48.4184 46.867 48.4184 46.8919 48.4165 46.9158C48.3933 48.1576 47.9565 49.3567 47.1742 50.3261C47.1347 50.3769 47.0932 50.4257 47.0507 50.4746C46.987 50.5493 46.9214 50.6212 46.8538 50.692C46.848 50.6978 46.8422 50.7045 46.8354 50.7102L46.8326 50.7131C46.8248 50.7208 46.8171 50.7294 46.8094 50.7371C46.6907 50.8587 46.5661 50.9753 46.4358 51.0867C46.4098 51.1088 46.3828 51.1317 46.3548 51.1538C45.347 51.9843 44.0808 52.4433 42.7709 52.4528C42.7612 52.4537 42.7506 52.4537 42.7409 52.4537H42.7072C42.6975 52.4537 42.6879 52.4537 42.6782 52.4528C42.6444 52.4528 42.6116 52.4518 42.5778 52.4508C41.2676 52.4201 40.0087 51.9397 39.0152 51.0915C38.9881 51.0695 38.9611 51.0465 38.935 51.0225C38.8318 50.9325 38.7323 50.8377 38.6368 50.7399C38.6291 50.7323 38.6213 50.7237 38.6136 50.716L38.6107 50.7131C38.604 50.7074 38.5982 50.7007 38.5924 50.6949C38.5113 50.6106 38.4331 50.5234 38.3578 50.4344C38.3163 50.3855 38.2758 50.3357 38.2362 50.2849C37.4738 49.3227 37.0491 48.1397 37.0268 46.9158C37.0248 46.8928 37.0248 46.8689 37.0248 46.8449V46.7558C37.0248 46.7453 37.0248 46.7348 37.0258 46.7242C37.0395 45.498 37.4567 44.3098 38.214 43.3408C38.2536 43.29 38.2941 43.2402 38.3356 43.1913C38.4119 43.0994 38.492 43.0103 38.574 42.9231C38.5798 42.9164 38.5856 42.9106 38.5924 42.9039C38.5924 42.903 38.5933 42.902 38.5943 42.9011C38.602 42.8934 38.6097 42.8848 38.6184 42.8771C38.7256 42.7669 38.8372 42.6609 38.9534 42.5591C38.9794 42.5351 39.0065 42.5121 39.0335 42.4901C40.0494 41.6313 41.3379 41.1554 42.6724 41.1461C42.6821 41.1451 42.6927 41.1451 42.7023 41.1451H42.7651C44.0687 41.1533 45.3298 41.6065 46.3364 42.4288C46.3634 42.4518 46.3905 42.4738 46.4175 42.4968C46.5584 42.6156 46.6936 42.742 46.8219 42.8742C46.8297 42.8819 46.8374 42.8905 46.8451 42.8982L46.847 42.9001C46.8538 42.9058 46.8605 42.9135 46.8663 42.9193C46.9378 42.994 47.0063 43.0716 47.0729 43.1501C47.1154 43.199 47.1559 43.2478 47.1965 43.2986C47.9743 44.2749 48.4037 45.4797 48.4175 46.7242C48.4183 46.7335 48.4186 46.7427 48.4184 46.752V46.752Z" fill="#902C8C"/>
<path d="M42.7709 41.1681H42.5778V52.4719H42.7709V41.1681Z" fill="white"/>
<path d="M48.4184 46.7242H36.9795V46.9158H48.4184V46.7242Z" fill="white"/>
<path d="M40.2594 46.7242C40.2442 46.0261 40.0618 45.3416 39.7273 44.7272C39.3928 44.1129 38.9158 43.5864 38.3357 43.1913C38.2942 43.2402 38.2536 43.29 38.2141 43.3408C38.7718 43.7178 39.2309 44.2215 39.5532 44.8099C39.8755 45.3984 40.0517 46.0546 40.0673 46.7242C40.0683 46.7558 40.0683 46.7874 40.0683 46.82C40.0683 46.8526 40.0683 46.8842 40.0673 46.9158C40.0516 47.581 39.8776 48.233 39.5593 48.8185C39.2411 49.4041 38.7877 49.9066 38.2362 50.2849C38.2758 50.3357 38.3163 50.3855 38.3579 50.4344C38.9318 50.0381 39.4032 49.5128 39.7336 48.9013C40.0641 48.2898 40.2442 47.6095 40.2594 46.9158C40.2613 46.8842 40.2613 46.8516 40.2613 46.82C40.2613 46.7884 40.2613 46.7558 40.2594 46.7242Z" fill="white"/>
<path d="M45.2815 46.9158C45.2805 46.8842 45.2805 46.8526 45.2805 46.82C45.2805 46.7875 45.2805 46.7558 45.2815 46.7242C45.2974 46.042 45.48 45.3739 45.8136 44.7772C46.1472 44.1805 46.6217 43.6731 47.1965 43.2986C47.1559 43.2478 47.1154 43.199 47.073 43.1501C46.4763 43.5428 45.9842 44.073 45.6388 44.6954C45.2934 45.3178 45.1049 46.0139 45.0894 46.7242C45.0875 46.7558 45.0875 46.7884 45.0875 46.82C45.0875 46.8516 45.0875 46.8842 45.0894 46.9158C45.1048 47.6216 45.291 48.3134 45.6324 48.9328C45.9738 49.5522 46.4602 50.081 47.0507 50.4746C47.0932 50.4257 47.1347 50.3769 47.1743 50.3261C46.6056 49.9507 46.1367 49.4447 45.8071 48.851C45.4776 48.2573 45.2973 47.5934 45.2815 46.9158V46.9158Z" fill="white"/>
</g>
</g>
<defs>
<filter id="filter0_d_59_836" x="0" y="0" width="145" height="136" filterUnits="userSpaceOnUse" color-interpolation-filters="sRGB">
<feFlood flood-opacity="0" result="BackgroundImageFix"/>
<feColorMatrix in="SourceAlpha" type="matrix" values="0 0 0 0 0 0 0 0 0 0 0 0 0 0 0 0 0 0 127 0" result="hardAlpha"/>
<feOffset dy="4"/>
<feGaussianBlur stdDeviation="2"/>
<feComposite in2="hardAlpha" operator="out"/>
<feColorMatrix type="matrix" values="0 0 0 0 0 0 0 0 0 0 0 0 0 0 0 0 0 0 0.25 0"/>
<feBlend mode="normal" in2="BackgroundImageFix" result="effect1_dropShadow_59_836"/>
<feBlend mode="normal" in="SourceGraphic" in2="effect1_dropShadow_59_836" result="shape"/>
</filter>
<clipPath id="clip0_59_836">
<rect width="93" height="83" fill="white" transform="translate(26 24)"/>
</clipPath>
</defs>
</svg>
