<svg width="145" height="136" viewBox="0 0 145 136" fill="none" xmlns="http://www.w3.org/2000/svg">
<g filter="url(#filter0_d_59_834)">
<rect x="4.5" y="0.5" width="136" height="127" rx="12.5" fill="#FAFAFA" stroke="#EFEFEF"/>
<g clip-path="url(#clip0_59_834)">
<path d="M92.7337 96.1774L92.1985 88.3547L90.6694 96.627C90.6694 96.627 90.6895 98.7139 90.7402 101H92.6993C92.7652 98.3868 92.7337 96.1774 92.7337 96.1774Z" fill="#F2F2F2"/>
<path d="M65.2163 98.9594C65.0657 98.2279 64.9594 97.4848 64.8982 96.7356L64.6841 94.0295C64.5941 93.2884 64.5016 92.6354 64.4087 92.059C63.727 87.9495 63.0233 87.8008 63.0233 87.8008C62.9931 87.8281 62.9637 87.8582 62.9334 87.8893C62.8507 87.9778 62.7737 88.0734 62.703 88.1752C61.5823 89.8505 60.822 94.1955 60.4225 97.0779C60.2019 98.6701 60.092 99.8158 60.092 99.8158C60.092 99.8158 60.1919 100.304 60.3281 101H65.4424C65.423 100.313 65.3473 99.6295 65.2163 98.9594V98.9594Z" fill="#F2F2F2"/>
<path d="M105.431 23H33.5685C25.0058 23 18 31.2392 18 41.3093V82.6907C18 92.7608 25.0058 101 33.5685 101H56.3452L56.0513 99.3726C56.0513 99.3726 55.2953 93.6354 56.0513 89.1623C56.2954 87.7588 56.4629 86.3384 56.5528 84.9099C56.6473 83.2971 56.8715 81.6984 57.2222 80.1353C57.2422 80.045 57.2647 79.9556 57.2855 79.8656C57.1012 79.8067 57.0165 79.7595 57.0593 79.7298C57.1774 79.6477 57.2424 79.3965 57.2747 79.0776C57.4761 76.9669 57.8601 74.8858 58.4208 72.8667C57.6569 73.4307 57.1497 73.4906 56.8177 73.272C55.6509 72.8973 56.1353 69.8111 56.1353 69.8111C56.1353 69.8111 56.8604 63.1359 57.1013 60.719C57.2397 59.3297 59.0141 58.5425 60.5847 58.115C60.7502 57.6975 60.8694 57.2769 60.7938 56.8355C60.7887 56.8058 60.7813 56.7771 60.7746 56.7481C60.5749 56.2264 60.169 55.7972 60.0166 55.257C59.9491 55.1116 59.9016 54.9545 59.8757 54.7917C59.7408 53.8655 60.4772 53.0654 60.6895 52.1746C60.4729 51.9286 60.3112 51.6236 60.2186 51.2867C59.8951 50.5062 60.0528 49.5695 61.0919 48.8462C61.2993 48.7018 61.5191 48.5744 61.7423 48.4521C61.8241 48.3899 61.9131 48.342 62.0065 48.3097C62.7499 47.9142 63.4971 47.5315 63.942 46.7616C64.0566 46.5633 64.1571 46.3332 64.3425 46.229C64.4298 46.1851 64.5233 46.1604 64.6182 46.1564C66.0507 46.0271 67.3478 47.4717 68.7734 47.2647C69.2053 47.202 69.6462 46.9884 70.0608 47.1421C70.3332 47.2431 70.5458 47.4892 70.7288 47.7436C71.2271 48.4431 71.5879 49.2634 71.7855 50.1458C71.9831 51.0282 72.0126 51.951 71.872 52.8484C71.6912 53.9529 71.2516 55.0914 71.5684 56.1541C71.8011 56.9349 72.4243 57.5686 72.4287 58.3946C72.4324 59.0743 72.0221 59.6166 71.6257 60.1454C71.6773 60.2074 71.7275 60.2711 71.7764 60.3364C72.745 61.6343 72.562 62.742 72.4254 63.1856L72.4254 63.1858L71.9273 68.8387L71.5073 72.6311C71.5073 72.6311 71.4034 74.1875 70.4252 74.5289C70.1402 74.6839 69.7669 74.7247 69.2762 74.5491C68.9578 74.4351 68.6895 74.3212 68.4618 74.2105C68.677 75.0189 69.0475 76.6693 68.9873 78.2711C68.9033 80.5077 69.1553 80.7022 69.1553 80.7022C69.1395 80.7252 69.1216 80.746 69.1019 80.7643C70.0997 83.3569 70.1088 86.0169 69.0713 88.676C67.8953 91.6905 69.1553 98.692 69.1553 98.692C69.1553 98.692 69.245 99.7841 69.2853 101H87.3255C87.0385 97.7815 86.6938 94.5594 86.5407 94.1993C86.2883 93.6055 86.6088 83.8236 86.7284 80.4258C86.6753 80.41 86.6233 80.3939 86.5744 80.3774C86.4891 80.3486 86.4124 80.3186 86.3416 80.288C86.338 80.4609 86.3535 80.6336 86.3878 80.8018C86.494 81.0932 86.2393 81.3073 85.8066 81.4535C86.0583 82.898 86.3692 85.586 85.3174 86.1068C84.2355 86.6426 84.2138 83.3882 84.2732 81.6919C84.1368 81.6979 83.9999 81.701 83.8647 81.701C82.565 81.701 84.247 63.9875 84.1706 62.8186C84.0941 61.6497 84.7822 56.8842 84.7822 56.8842C84.7822 56.8842 85.0116 55.8951 85.6997 55.7153C86.3878 55.5354 89.6754 53.2875 89.6754 53.2875C89.8603 52.982 90.094 52.7218 90.3635 52.5214V52.3884C90.4493 52.2945 90.5404 52.2077 90.6364 52.1287C90.5963 51.343 90.5059 50.3294 90.44 49.6447C90.0705 49.2018 89.8208 48.6401 89.7227 48.0304C89.5818 47.9011 89.4481 47.7614 89.3223 47.6121C89.0066 47.1864 88.8255 46.6456 88.8096 46.0811C88.7955 45.5203 88.8645 44.961 89.0135 44.4281C89.0524 44.251 89.112 44.0812 89.1906 43.9234C89.2987 43.7404 89.4343 43.5822 89.5909 43.4567C89.6373 43.4162 89.6852 43.3783 89.733 43.3401C89.8344 43.1085 89.983 42.9101 90.1656 42.7626C90.5559 42.4613 91.058 42.4859 91.5247 42.4996C91.5316 42.4998 91.5387 42.4997 91.5458 42.4998C91.6323 42.4834 91.7192 42.4699 91.8064 42.4592C91.8573 42.4473 91.9043 42.4182 91.9414 42.3754C91.9785 42.3326 92.0043 42.278 92.0154 42.2183C92.0786 42.2897 92.1418 42.3611 92.2049 42.4324C92.2997 42.4308 92.3944 42.4327 92.4891 42.4382C92.531 42.3253 92.5802 42.2165 92.6364 42.1126C92.671 42.2287 92.7057 42.3449 92.7403 42.461C92.8354 42.4729 92.9301 42.4879 93.0244 42.5072C93.0987 42.4378 93.173 42.3683 93.2474 42.2989C93.2639 42.2834 93.323 42.511 93.3529 42.5891C93.404 42.6046 93.455 42.621 93.5055 42.6394C93.5845 42.6351 93.6723 42.6177 93.7211 42.6187C93.99 42.608 94.2562 42.686 94.4894 42.844C94.6931 43.0182 94.8601 43.245 94.9778 43.5069C95.2781 44.0658 95.4647 44.6987 95.5229 45.3564C95.6688 45.5942 95.7718 45.8647 95.8253 46.1511C95.9515 47.0538 95.2221 47.808 95.0776 48.7068C95.0005 49.1864 95.0885 49.7174 94.8808 50.1399C94.7899 50.31 94.6708 50.4569 94.5306 50.5718C94.4477 50.6445 94.3613 50.7114 94.2717 50.7722C94.2765 51.3159 94.3295 51.8576 94.43 52.3884L94.5283 52.832C94.6813 52.9617 94.8463 53.1116 95.0274 53.2875C95.0274 53.2875 97.1681 54.3665 97.9327 54.906C98.6048 55.3803 99.3356 55.4382 99.5545 56.056L99.6147 56.0749C99.6147 56.0749 100.379 66.0556 100.456 67.764C100.532 69.4724 101.45 79.9926 101.297 80.4421C101.24 80.6085 100.88 80.7995 100.444 80.9513C100.698 82.3169 101.109 85.2867 99.997 85.8371C98.8702 86.3951 98.8935 82.842 98.9606 81.2196C98.8103 81.2036 98.7118 81.1573 98.6973 81.0715C98.6848 80.9985 98.645 80.6683 98.5874 80.1649C98.4921 80.1824 98.3934 80.2004 98.2882 80.2191C98.2671 80.2229 98.2449 80.2268 98.2234 80.2306C99.1927 83.8165 97.0459 93.3268 96.6329 95.1883C96.4172 96.1611 96.1845 98.5662 95.9747 101H105.431C113.994 101 121 92.7608 121 82.6907V41.3093C121 31.2392 113.994 23 105.431 23Z" fill="#F2F2F2"/>
<path d="M41.0597 55.9886C46.821 55.9886 51.4915 50.9902 51.4915 44.8245C51.4915 38.6587 46.821 33.6604 41.0597 33.6604C35.2984 33.6604 30.628 38.6587 30.628 44.8245C30.628 50.9902 35.2984 55.9886 41.0597 55.9886Z" fill="#3F3D56"/>
<path d="M58.2447 81.3063C58.2447 81.3063 61.7586 78.4652 61.7586 77.1738C61.7586 75.8824 64.1743 67.4884 65.492 71.2334C66.8097 74.9785 63.6253 80.2732 63.6253 80.2732C63.6253 80.2732 60.1114 87.7632 58.0251 89.0546C55.9387 90.346 54.1818 89.5712 54.1818 89.5712V86.0844L56.1893 82.5903C56.4164 82.1949 56.7226 81.8711 57.081 81.6472C57.4393 81.4234 57.8389 81.3063 58.2447 81.3063V81.3063Z" fill="#FFB9B9"/>
<path d="M48.2569 61.5269C48.2569 61.5269 53.5229 63.4851 54.072 64.3891C54.621 65.293 54.8406 63.7434 56.3779 69.6838C57.9152 75.6242 58.2996 81.3708 58.2996 81.3708C58.2996 81.3708 54.5112 82.8559 54.9504 88.6672C55.3897 94.4785 54.2916 100.806 54.2916 100.806H52.9207L49.8993 89.8295L53.5229 73.1705C53.5229 73.1705 48.3715 62.9262 48.2569 61.5269Z" fill="#575A89"/>
<path d="M46.4952 56.1242C50.1339 56.1242 53.0837 52.6551 53.0837 48.3758C53.0837 44.0965 50.1339 40.6275 46.4952 40.6275C42.8565 40.6275 39.9067 44.0965 39.9067 48.3758C39.9067 52.6551 42.8565 56.1242 46.4952 56.1242Z" fill="#FFB9B9"/>
<path d="M49.0208 54.1871C49.0208 54.1871 47.1541 61.4189 48.8012 62.452C50.4483 63.4851 52.3151 68.1341 52.3151 68.1341L49.46 71.8791H42.8716L39.9067 68.005L38.6989 61.4189L40.346 59.8692C40.346 59.8692 42.1029 54.7036 42.1029 51.9917C42.1029 49.2798 49.0208 54.1871 49.0208 54.1871Z" fill="#FFB9B9"/>
<path d="M49.5698 62.1937C49.5698 62.1937 48.2521 61.8063 49.0208 63.356C49.7895 64.9056 50.5581 67.7467 47.8129 67.8758C45.0677 68.005 42.3225 66.3262 41.444 62.8394C40.5656 59.3526 40.2362 59.6109 39.9067 59.7401C39.5773 59.8692 36.0634 64.1308 36.0634 64.1308L37.2713 72.1374L37.7106 100.806H53.7426C53.7426 100.806 54.4014 92.5414 53.3033 90.6043C52.2052 88.6672 54.2916 83.7599 54.2916 83.7599C54.2916 83.7599 56.1583 80.4023 54.7308 73.9454C53.3033 67.4884 50.1189 62.1937 49.5698 62.1937Z" fill="#902C8C"/>
<path d="M40.6754 59.7401C40.6754 59.7401 39.0283 58.8361 37.6008 60.3858C36.1733 61.9354 32.9888 63.2268 32.9888 64.0017C32.9888 64.7765 35.734 86.8593 33.8673 90.7334C32.0006 94.6076 30.024 100.806 30.024 100.806H39.1835C39.1835 100.806 40.6754 94.3493 42.2127 90.8626C43.75 87.3758 43.6402 77.5613 43.201 74.5911C42.7618 71.6209 40.6754 59.7401 40.6754 59.7401Z" fill="#575A89"/>
<path d="M31.0123 93.9619L31.547 100.806H37.4818L36.9419 92.2831L31.0123 93.9619Z" fill="#FFB9B9"/>
<path d="M58.0251 90.346L59.4526 100.806H91.1871L93.9323 79.7566L58.0251 90.346Z" fill="#3F3D56"/>
<path d="M95.1402 78.3361L95.4697 80.2732L54.4014 91.8957V90.2169L95.1402 78.3361Z" fill="#3F3D56"/>
<path d="M77.7905 81.8228L77.5709 84.0182L79.9867 83.6308L78.9984 81.4354L77.7905 81.8228Z" fill="#3F3D56"/>
<path d="M64.5038 59.6109C64.5038 59.6109 69.3353 59.2235 70.653 63.6142C71.9707 68.005 75.0453 75.8824 76.2532 77.0447C77.4611 78.2069 78.7788 81.3063 78.5592 82.3394" stroke="#3F3D56" stroke-width="1.26263" stroke-miterlimit="10"/>
<path d="M65.2175 59.5464C65.2175 60.1526 64.6694 60.644 63.79 60.644C62.9107 60.644 62.4723 60.1526 62.4723 59.5464C62.4723 58.9401 62.9107 58.4487 63.79 58.4487C64.6694 58.4487 65.2175 58.9401 65.2175 59.5464Z" fill="#902C8C"/>
<path d="M57.0917 79.692C57.0917 79.692 57.9153 75.6242 56.378 69.6838C54.8406 63.7434 54.621 65.293 54.072 64.3891C53.5229 63.4851 48.257 61.5269 48.257 61.5269C48.2946 61.9867 48.8761 63.4016 49.64 65.0941C49.5025 64.484 49.2941 63.8991 49.0208 63.3559C48.2522 61.8063 49.5699 62.1937 49.5699 62.1937C50.1189 62.1937 53.3033 67.4884 54.7308 73.9454C56.1583 80.4023 54.2916 83.7599 54.2916 83.7599L57.0917 79.692Z" fill="#575A89"/>
<path d="M48.3071 61.4834C48.3071 61.4834 48.9572 64.3836 49.5106 64.806C50.064 65.2285 53.3461 69.2387 53.3461 69.2387L52.919 66.0033L51.1621 62.904L50.6948 62.5052L48.3071 61.4834Z" fill="#575A89"/>
<path opacity="0.1" d="M33.7026 70.394L33.8557 63.7434C33.8557 63.7434 30.2436 65.5513 29.9142 73.2997C29.5848 81.048 30.4632 95.6407 31.6711 95.7699C32.879 95.899 38.589 94.3493 38.589 94.3493C38.589 94.3493 39.4675 75.6242 39.1381 73.1705C38.8086 70.7169 33.7026 70.394 33.7026 70.394Z" fill="black"/>
<path d="M33.9771 63.7434H33.087C33.087 63.7434 29.475 65.5513 29.1456 73.2997C28.8161 81.048 29.6946 95.6407 30.9025 95.7699C32.1104 95.899 37.8204 94.3493 37.8204 94.3493C37.8204 94.3493 38.6989 75.6242 38.3694 73.1705C38.04 70.7169 33.9771 63.7434 33.9771 63.7434Z" fill="#575A89"/>
<path d="M38.6439 55.2848C42.404 55.2848 45.4521 51.2664 45.4521 46.3096C45.4521 41.3527 42.404 37.3344 38.6439 37.3344C34.8839 37.3344 31.8358 41.3527 31.8358 46.3096C31.8358 51.2664 34.8839 55.2848 38.6439 55.2848Z" fill="#3F3D56"/>
<path d="M43.5304 53.6059C44.2884 53.6059 44.903 52.5363 44.903 51.2169C44.903 49.8974 44.2884 48.8278 43.5304 48.8278C42.7723 48.8278 42.1578 49.8974 42.1578 51.2169C42.1578 52.5363 42.7723 53.6059 43.5304 53.6059Z" fill="#FFB9B9"/>
<path d="M31.8359 43.9205C34.9288 43.9205 37.4361 40.9718 37.4361 37.3344C37.4361 33.697 34.9288 30.7483 31.8359 30.7483C28.743 30.7483 26.2357 33.697 26.2357 37.3344C26.2357 40.9718 28.743 43.9205 31.8359 43.9205Z" fill="#3F3D56"/>
<path d="M32.5597 42.6107C31.7461 43.0975 30.8437 43.343 29.931 43.3259C29.0183 43.3088 28.1229 43.0296 27.323 42.5125C26.523 41.9954 25.8427 41.2562 25.3412 40.3592C24.8397 39.4622 24.5323 38.4346 24.4457 37.3659C24.3261 38.2884 24.3746 39.2302 24.5879 40.129C24.8012 41.0278 25.1746 41.863 25.6831 42.5793C26.1917 43.2956 26.8239 43.8766 27.5378 44.2838C28.2518 44.691 29.0311 44.9151 29.8243 44.9412C30.6174 44.9674 31.4063 44.795 32.1385 44.4356C32.8707 44.0761 33.5296 43.5377 34.0715 42.8561C34.6134 42.1745 35.026 41.3652 35.2818 40.4819C35.5377 39.5986 35.631 38.6614 35.5556 37.7325C35.4223 38.7673 35.081 39.7498 34.5599 40.5982C34.0388 41.4467 33.3531 42.1366 32.5597 42.6107V42.6107Z" fill="#3F3D56"/>
<path d="M28.7635 38.423C28.2011 37.5774 27.8231 36.5829 27.6623 35.5262C27.5014 34.4695 27.5627 33.3825 27.8407 32.36C28.1188 31.3375 28.6051 30.4104 29.2575 29.6595C29.9098 28.9086 30.7084 28.3567 31.5836 28.0517C30.7908 28.0906 30.0141 28.3273 29.305 28.746C28.5959 29.1646 27.9705 29.7557 27.4704 30.4801C26.9702 31.2046 26.6066 32.0457 26.4038 32.9478C26.201 33.85 26.1635 34.7925 26.2938 35.713C26.4241 36.6335 26.7193 37.5108 27.1598 38.287C27.6002 39.0632 28.1759 39.7204 28.8487 40.2151C29.5215 40.7098 30.276 41.0307 31.0622 41.1565C31.8484 41.2824 32.6484 41.2103 33.4091 40.945C32.52 40.9898 31.6346 40.7843 30.8266 40.3456C30.0186 39.907 29.3113 39.2478 28.7635 38.423Z" fill="#3F3D56"/>
<path d="M46.8795 45.7285C49.0628 45.7285 50.8326 44.2252 50.8326 42.3709C50.8326 40.5165 49.0628 39.0132 46.8795 39.0132C44.6963 39.0132 42.9265 40.5165 42.9265 42.3709C42.9265 44.2252 44.6963 45.7285 46.8795 45.7285Z" fill="#3F3D56"/>
</g>
</g>
<defs>
<filter id="filter0_d_59_834" x="0" y="0" width="145" height="136" filterUnits="userSpaceOnUse" color-interpolation-filters="sRGB">
<feFlood flood-opacity="0" result="BackgroundImageFix"/>
<feColorMatrix in="SourceAlpha" type="matrix" values="0 0 0 0 0 0 0 0 0 0 0 0 0 0 0 0 0 0 127 0" result="hardAlpha"/>
<feOffset dy="4"/>
<feGaussianBlur stdDeviation="2"/>
<feComposite in2="hardAlpha" operator="out"/>
<feColorMatrix type="matrix" values="0 0 0 0 0 0 0 0 0 0 0 0 0 0 0 0 0 0 0.25 0"/>
<feBlend mode="normal" in2="BackgroundImageFix" result="effect1_dropShadow_59_834"/>
<feBlend mode="normal" in="SourceGraphic" in2="effect1_dropShadow_59_834" result="shape"/>
</filter>
<clipPath id="clip0_59_834">
<rect width="103" height="78" fill="white" transform="translate(18 23)"/>
</clipPath>
</defs>
</svg>
